<svg width="264" height="40" viewBox="0 0 264 40" fill="none" xmlns="http://www.w3.org/2000/svg">
<g clip-path="url(#clip0_1226_150)">
<rect width="40" height="40" fill="white"/>
<mask id="path-1-outside-1_1226_150" maskUnits="userSpaceOnUse" x="-1.01073" y="-2.19732" width="21.0756" height="26.818" fill="black">
<rect fill="white" x="-1.01073" y="-2.19732" width="21.0756" height="26.818"/>
<path d="M10.1109 22.421C8.4697 22.4901 6.98779 22.2856 5.66518 21.8074C4.34257 21.3293 3.26497 20.5846 2.43238 19.5734C1.62111 18.5613 1.16321 17.3208 1.05868 15.8519L6.87753 15.607C6.99778 16.4346 7.31243 17.062 7.8215 17.4889C8.32968 17.8946 8.97808 18.0808 9.76672 18.0476C10.5767 18.0135 11.2085 17.8055 11.6621 17.4234C12.1149 17.02 12.3274 16.4879 12.2996 15.8272C12.2763 15.273 12.0651 14.8228 11.6662 14.4766C11.2886 14.1295 10.8178 13.8504 10.2538 13.6393C9.71105 13.4272 8.93252 13.1931 7.91818 12.9368C6.44996 12.5502 5.24817 12.1524 4.31281 11.7434C3.37745 11.3344 2.561 10.7068 1.86348 9.86072C1.16595 9.01463 0.787582 7.88821 0.728378 6.48146C0.640468 4.39264 1.32851 2.73024 2.7925 1.49425C4.25559 0.236953 6.20206 -0.442828 8.63191 -0.545091C11.1044 -0.649148 13.1224 -0.136216 14.686 0.993704C16.2486 2.10231 17.1277 3.70944 17.323 5.81508L11.4083 6.06401C11.3351 5.34111 11.0449 4.78749 10.5377 4.40315C10.0295 3.99749 9.39174 3.81081 8.62442 3.8431C7.96367 3.87091 7.43844 4.07451 7.04871 4.4539C6.65809 4.81198 6.47668 5.32139 6.50449 5.98214C6.53499 6.70683 6.89979 7.25731 7.5989 7.63358C8.29801 8.00985 9.38212 8.40194 10.8512 8.80986C12.3213 9.2391 13.5133 9.65868 14.4273 10.0686C15.3627 10.4776 16.1787 11.0945 16.8753 11.9193C17.5719 12.7441 17.9485 13.8279 18.005 15.1707C18.0589 16.4495 17.7774 17.6251 17.1606 18.6973C16.5651 19.7686 15.6622 20.6394 14.452 21.3095C13.2418 21.9797 11.7948 22.3502 10.1109 22.421Z"/>
</mask>
<path d="M10.1109 22.421C8.4697 22.4901 6.98779 22.2856 5.66518 21.8074C4.34257 21.3293 3.26497 20.5846 2.43238 19.5734C1.62111 18.5613 1.16321 17.3208 1.05868 15.8519L6.87753 15.607C6.99778 16.4346 7.31243 17.062 7.8215 17.4889C8.32968 17.8946 8.97808 18.0808 9.76672 18.0476C10.5767 18.0135 11.2085 17.8055 11.6621 17.4234C12.1149 17.02 12.3274 16.4879 12.2996 15.8272C12.2763 15.273 12.0651 14.8228 11.6662 14.4766C11.2886 14.1295 10.8178 13.8504 10.2538 13.6393C9.71105 13.4272 8.93252 13.1931 7.91818 12.9368C6.44996 12.5502 5.24817 12.1524 4.31281 11.7434C3.37745 11.3344 2.561 10.7068 1.86348 9.86072C1.16595 9.01463 0.787582 7.88821 0.728378 6.48146C0.640468 4.39264 1.32851 2.73024 2.7925 1.49425C4.25559 0.236953 6.20206 -0.442828 8.63191 -0.545091C11.1044 -0.649148 13.1224 -0.136216 14.686 0.993704C16.2486 2.10231 17.1277 3.70944 17.323 5.81508L11.4083 6.06401C11.3351 5.34111 11.0449 4.78749 10.5377 4.40315C10.0295 3.99749 9.39174 3.81081 8.62442 3.8431C7.96367 3.87091 7.43844 4.07451 7.04871 4.4539C6.65809 4.81198 6.47668 5.32139 6.50449 5.98214C6.53499 6.70683 6.89979 7.25731 7.5989 7.63358C8.29801 8.00985 9.38212 8.40194 10.8512 8.80986C12.3213 9.2391 13.5133 9.65868 14.4273 10.0686C15.3627 10.4776 16.1787 11.0945 16.8753 11.9193C17.5719 12.7441 17.9485 13.8279 18.005 15.1707C18.0589 16.4495 17.7774 17.6251 17.1606 18.6973C16.5651 19.7686 15.6622 20.6394 14.452 21.3095C13.2418 21.9797 11.7948 22.3502 10.1109 22.421Z" fill="white"/>
<path d="M5.66518 21.8074L5.3252 22.7479L5.3252 22.7479L5.66518 21.8074ZM2.43238 19.5734L1.65204 20.1989L1.66039 20.209L2.43238 19.5734ZM1.05868 15.8519L1.01663 14.8527L-0.0118605 14.896L0.0612055 15.9228L1.05868 15.8519ZM6.87753 15.607L7.86714 15.4632L7.73737 14.5699L6.83548 14.6078L6.87753 15.607ZM7.8215 17.4889L7.17888 18.2551L7.18817 18.2629L7.19763 18.2705L7.8215 17.4889ZM11.6621 17.4234L12.3063 18.1883L12.317 18.1793L12.3274 18.17L11.6621 17.4234ZM11.6662 14.4766L10.9895 15.2128L11 15.2225L11.0108 15.2318L11.6662 14.4766ZM10.2538 13.6393L9.88988 14.5707L9.89653 14.5733L9.90321 14.5758L10.2538 13.6393ZM7.91818 12.9368L7.66353 13.9039L7.67325 13.9064L7.91818 12.9368ZM4.31281 11.7434L3.91214 12.6596L4.31281 11.7434ZM1.86348 9.86072L2.63507 9.2246L2.63507 9.2246L1.86348 9.86072ZM2.7925 1.49425L3.43762 2.25838L3.44425 2.25268L2.7925 1.49425ZM14.686 0.993704L14.1002 1.80425L14.1074 1.80931L14.686 0.993704ZM17.323 5.81508L17.3651 6.8142L18.4159 6.76997L18.3188 5.72269L17.323 5.81508ZM11.4083 6.06401L10.4133 6.16466L10.5082 7.10277L11.4503 7.06313L11.4083 6.06401ZM10.5377 4.40315L9.91379 5.18468L9.92368 5.19257L9.93376 5.20021L10.5377 4.40315ZM7.04871 4.4539L7.72444 5.19105L7.7355 5.18091L7.74625 5.17045L7.04871 4.4539ZM7.5989 7.63358L8.07283 6.75302L8.07283 6.75302L7.5989 7.63358ZM10.8512 8.80986L11.1316 7.84986L11.1188 7.84632L10.8512 8.80986ZM14.4273 10.0686L14.0181 10.9811L14.0267 10.9848L14.4273 10.0686ZM16.8753 11.9193L16.1114 12.5646L16.1114 12.5646L16.8753 11.9193ZM17.1606 18.6973L16.2938 18.1987L16.2901 18.205L16.2865 18.2115L17.1606 18.6973ZM14.452 21.3095L13.9676 20.4347L13.9676 20.4347L14.452 21.3095ZM10.0689 21.4219C8.53608 21.4864 7.18671 21.2941 6.00516 20.867L5.3252 22.7479C6.78887 23.277 8.40333 23.4938 10.153 23.4201L10.0689 21.4219ZM6.00516 20.867C4.83841 20.4452 3.91451 19.8002 3.20438 18.9378L1.66039 20.209C2.61544 21.369 3.84674 22.2134 5.3252 22.7479L6.00516 20.867ZM3.21266 18.9479C2.54512 18.1152 2.14829 17.0756 2.05616 15.7809L0.0612055 15.9228C0.178125 17.5659 0.697096 19.0074 1.65211 20.1988L3.21266 18.9479ZM1.10073 16.851L6.91958 16.6061L6.83548 14.6078L1.01663 14.8527L1.10073 16.851ZM5.88792 15.7507C6.03401 16.7563 6.43665 17.6326 7.17888 18.2551L8.46412 16.7228C8.18821 16.4913 7.96155 16.113 7.86714 15.4632L5.88792 15.7507ZM7.19763 18.2705C7.93252 18.8571 8.83303 19.0878 9.80876 19.0468L9.72467 17.0485C9.12314 17.0738 8.72683 16.9321 8.44537 16.7074L7.19763 18.2705ZM9.80876 19.0468C10.7597 19.0067 11.6309 18.7571 12.3063 18.1883L11.018 16.6585C10.7861 16.8538 10.3936 17.0204 9.72467 17.0485L9.80876 19.0468ZM12.3274 18.17C13.0262 17.5474 13.3378 16.7146 13.2987 15.7851L11.3005 15.8692C11.317 16.2612 11.2036 16.4926 10.9969 16.6767L12.3274 18.17ZM13.2987 15.7851C13.2645 14.9715 12.9398 14.2578 12.3217 13.7214L11.0108 15.2318C11.1905 15.3878 11.2881 15.5745 11.3005 15.8692L13.2987 15.7851ZM12.343 13.7404C11.8556 13.2924 11.2683 12.9513 10.6043 12.7027L9.90321 14.5758C10.3673 14.7495 10.7217 14.9667 10.9895 15.2128L12.343 13.7404ZM10.6177 12.7078C10.0171 12.4732 9.19151 12.2271 8.1631 11.9673L7.67325 13.9064C8.67352 14.1591 9.40498 14.3813 9.88988 14.5707L10.6177 12.7078ZM8.17281 11.9698C6.73294 11.5907 5.58475 11.2082 4.71347 10.8272L3.91214 12.6596C4.91158 13.0967 6.16697 13.5098 7.66354 13.9039L8.17281 11.9698ZM4.71347 10.8272C3.93257 10.4857 3.24025 9.95867 2.63507 9.2246L1.09188 10.4968C1.88176 11.4549 2.82232 12.183 3.91214 12.6596L4.71347 10.8272ZM2.63507 9.2246C2.111 8.58892 1.78016 7.69087 1.72749 6.43941L-0.270738 6.52351C-0.204997 8.08556 0.220896 9.44035 1.09188 10.4968L2.63507 9.2246ZM1.72749 6.43941C1.65122 4.62719 2.23365 3.2748 3.4376 2.25835L2.1474 0.730152C0.423369 2.18568 -0.370289 4.15809 -0.270738 6.52351L1.72749 6.43941ZM3.44425 2.25268C4.6966 1.17648 6.40901 0.549347 8.67396 0.454025L8.58986 -1.54421C5.99512 -1.435 3.81458 -0.702576 2.14074 0.735821L3.44425 2.25268ZM8.67396 0.454025C10.9862 0.356711 12.7649 0.839204 14.1002 1.80422L15.2717 0.183193C13.4799 -1.11164 11.2226 -1.65501 8.58986 -1.54421L8.67396 0.454025ZM14.1074 1.80931C15.4058 2.73044 16.1557 4.05828 16.3273 5.90747L18.3188 5.72269C18.0996 3.36059 17.0915 1.47418 15.2646 0.178103L14.1074 1.80931ZM17.281 4.81597L11.3662 5.0649L11.4503 7.06313L17.3651 6.8142L17.281 4.81597ZM12.4032 5.96336C12.3065 5.00714 11.9025 4.18264 11.1416 3.60609L9.93376 5.20021C10.1874 5.39235 10.3638 5.67509 10.4133 6.16466L12.4032 5.96336ZM11.1615 3.62162C10.4318 3.03909 9.54466 2.80349 8.58237 2.84399L8.66647 4.84222C9.23882 4.81813 9.62719 4.9559 9.91379 5.18468L11.1615 3.62162ZM8.58237 2.84399C7.73144 2.8798 6.95339 3.15111 6.35117 3.73736L7.74625 5.17045C7.92349 4.99791 8.1959 4.86202 8.66647 4.84222L8.58237 2.84399ZM6.37298 3.71675C5.71241 4.32228 5.46851 5.14819 5.50538 6.02419L7.50361 5.94009C7.48486 5.49459 7.60377 5.30167 7.72444 5.19105L6.37298 3.71675ZM5.50538 6.02419C5.55233 7.13997 6.1506 7.98972 7.12497 8.51414L8.07283 6.75302C7.64898 6.5249 7.51765 6.27369 7.50361 5.94009L5.50538 6.02419ZM7.12497 8.51414C7.92466 8.94455 9.09566 9.36024 10.5837 9.77341L11.1188 7.84632C9.66858 7.44365 8.67136 7.07515 8.07283 6.75302L7.12497 8.51414ZM10.5709 9.76978C12.0174 10.1921 13.1616 10.5969 14.0181 10.981L14.8365 9.15617C13.8649 8.72043 12.6252 8.28608 11.1315 7.84995L10.5709 9.76978ZM14.0267 10.9848C14.8137 11.329 15.5077 11.8498 16.1114 12.5646L17.6393 11.274C16.8497 10.3392 15.9116 9.62626 14.828 9.15238L14.0267 10.9848ZM16.1114 12.5646C16.6328 13.1819 16.9564 14.0361 17.0059 15.2127L19.0041 15.1286C18.9406 13.6196 18.5111 12.3062 17.6393 11.274L16.1114 12.5646ZM17.0059 15.2127C17.0521 16.3094 16.8128 17.2964 16.2938 18.1987L18.0274 19.1959C18.742 17.9537 19.0656 16.5897 19.0041 15.1286L17.0059 15.2127ZM16.2865 18.2115C15.7933 19.0989 15.0357 19.8432 13.9676 20.4347L14.9364 22.1843C16.2888 21.4355 17.3369 20.4384 18.0346 19.1831L16.2865 18.2115ZM13.9676 20.4347C12.9196 21.015 11.631 21.3562 10.0689 21.4219L10.153 23.4201C11.9586 23.3442 13.5639 22.9443 14.9364 22.1843L13.9676 20.4347Z" fill="#4F4F4F" mask="url(#path-1-outside-1_1226_150)"/>
<mask id="path-3-outside-2_1226_150" maskUnits="userSpaceOnUse" x="-2.78136" y="15.2804" width="24.2016" height="30.3621" fill="black">
<rect fill="white" x="-2.78136" y="15.2804" width="24.2016" height="30.3621"/>
<path d="M2.71962 23.6718C3.27799 21.4568 4.37449 19.8907 6.00911 18.9734C7.64373 18.056 9.63999 17.8481 11.9979 18.3497C13.5629 18.6826 14.8407 19.2379 15.8312 20.0157C16.8426 20.7979 17.5301 21.7184 17.8938 22.7772C18.2783 23.8405 18.3463 24.9564 18.0978 26.1249C17.8048 27.5021 17.2208 28.5556 16.3458 29.2856C15.4753 29.9946 14.5476 30.408 13.5629 30.5257L13.5363 30.6509C14.6414 31.3004 15.4405 32.1574 15.9338 33.222C16.4272 34.2866 16.5207 35.5388 16.2144 36.9786C15.9392 38.2723 15.3926 39.3556 14.5744 40.2285C13.7815 41.0849 12.7513 41.6728 11.4839 41.9921C10.2372 42.3158 8.83141 42.3112 7.26643 41.9783C4.76244 41.4457 2.89019 40.4041 1.64967 38.8534C0.43001 37.3071 0.0425339 35.2836 0.487239 32.7827L5.683 33.8879C5.50858 34.8104 5.61407 35.5962 5.99946 36.2453C6.3893 36.8735 7.06415 37.2897 8.02401 37.4938C8.8378 37.6669 9.51262 37.5705 10.0485 37.2047C10.6096 36.8224 10.9723 36.2452 11.1365 35.4732C11.3496 34.4716 11.1793 33.6829 10.6256 33.1071C10.0972 32.5149 9.13404 32.0701 7.73599 31.7727L6.73439 31.5597L7.6598 27.209L8.66139 27.422C9.72559 27.6484 10.6188 27.653 11.3412 27.4359C12.0888 27.2023 12.5624 26.616 12.7622 25.677C12.922 24.9258 12.8376 24.2972 12.509 23.7911C12.1804 23.285 11.651 22.9543 10.9207 22.7989C10.1277 22.6303 9.48201 22.7437 8.98346 23.1393C8.50578 23.5394 8.16019 24.0875 7.94668 24.7836L2.71962 23.6718Z"/>
</mask>
<path d="M2.71962 23.6718C3.27799 21.4568 4.37449 19.8907 6.00911 18.9734C7.64373 18.056 9.63999 17.8481 11.9979 18.3497C13.5629 18.6826 14.8407 19.2379 15.8312 20.0157C16.8426 20.7979 17.5301 21.7184 17.8938 22.7772C18.2783 23.8405 18.3463 24.9564 18.0978 26.1249C17.8048 27.5021 17.2208 28.5556 16.3458 29.2856C15.4753 29.9946 14.5476 30.408 13.5629 30.5257L13.5363 30.6509C14.6414 31.3004 15.4405 32.1574 15.9338 33.222C16.4272 34.2866 16.5207 35.5388 16.2144 36.9786C15.9392 38.2723 15.3926 39.3556 14.5744 40.2285C13.7815 41.0849 12.7513 41.6728 11.4839 41.9921C10.2372 42.3158 8.83141 42.3112 7.26643 41.9783C4.76244 41.4457 2.89019 40.4041 1.64967 38.8534C0.43001 37.3071 0.0425339 35.2836 0.487239 32.7827L5.683 33.8879C5.50858 34.8104 5.61407 35.5962 5.99946 36.2453C6.3893 36.8735 7.06415 37.2897 8.02401 37.4938C8.8378 37.6669 9.51262 37.5705 10.0485 37.2047C10.6096 36.8224 10.9723 36.2452 11.1365 35.4732C11.3496 34.4716 11.1793 33.6829 10.6256 33.1071C10.0972 32.5149 9.13404 32.0701 7.73599 31.7727L6.73439 31.5597L7.6598 27.209L8.66139 27.422C9.72559 27.6484 10.6188 27.653 11.3412 27.4359C12.0888 27.2023 12.5624 26.616 12.7622 25.677C12.922 24.9258 12.8376 24.2972 12.509 23.7911C12.1804 23.285 11.651 22.9543 10.9207 22.7989C10.1277 22.6303 9.48201 22.7437 8.98346 23.1393C8.50578 23.5394 8.16019 24.0875 7.94668 24.7836L2.71962 23.6718Z" fill="white"/>
<path d="M2.71962 23.6718L1.74995 23.4273L1.4962 24.4339L2.51157 24.6499L2.71962 23.6718ZM6.00911 18.9734L6.4985 19.8454L6.4985 19.8454L6.00911 18.9734ZM15.8312 20.0157L15.2136 20.8022L15.2194 20.8067L15.8312 20.0157ZM17.8938 22.7772L16.948 23.102L16.9506 23.1097L16.9534 23.1173L17.8938 22.7772ZM16.3458 29.2856L16.9774 30.061L16.9864 30.0535L16.3458 29.2856ZM13.5629 30.5257L13.4442 29.5328L12.7337 29.6177L12.5848 30.3177L13.5629 30.5257ZM13.5363 30.6509L12.5582 30.4429L12.4082 31.1479L13.0296 31.5131L13.5363 30.6509ZM15.9338 33.222L16.8412 32.8016L15.9338 33.222ZM14.5744 40.2285L13.8448 39.5446L13.8406 39.5491L14.5744 40.2285ZM11.4839 41.9921L11.2396 41.0223L11.2325 41.0242L11.4839 41.9921ZM1.64967 38.8534L0.864502 39.4727L0.868791 39.4781L1.64967 38.8534ZM0.487239 32.7827L0.695289 31.8046L-0.316259 31.5894L-0.497317 32.6076L0.487239 32.7827ZM5.683 33.8879L6.66559 34.0736L6.84719 33.1131L5.89105 32.9098L5.683 33.8879ZM5.99946 36.2453L5.13962 36.7559L5.14462 36.7643L5.14978 36.7726L5.99946 36.2453ZM10.0485 37.2047L9.48544 36.3782L9.48459 36.3788L10.0485 37.2047ZM10.6256 33.1071L9.8794 33.7728L9.89183 33.7868L9.90477 33.8002L10.6256 33.1071ZM6.73439 31.5597L5.75627 31.3516L5.54822 32.3297L6.52634 32.5378L6.73439 31.5597ZM7.6598 27.209L7.86785 26.2309L6.88973 26.0228L6.68168 27.001L7.6598 27.209ZM11.3412 27.4359L11.6291 28.3936L11.6394 28.3904L11.3412 27.4359ZM12.509 23.7911L13.3478 23.2466L13.3478 23.2466L12.509 23.7911ZM8.98346 23.1393L8.36187 22.356L8.35153 22.3642L8.34141 22.3727L8.98346 23.1393ZM7.94668 24.7836L7.73863 25.7617L8.63424 25.9522L8.90273 25.0768L7.94668 24.7836ZM3.68928 23.9162C4.1963 21.905 5.15432 20.5998 6.4985 19.8454L5.51972 18.1013C3.59466 19.1816 2.35969 21.0087 1.74995 23.4273L3.68928 23.9162ZM6.4985 19.8454C7.86635 19.0778 9.59981 18.862 11.7899 19.3278L12.206 17.3716C9.68018 16.8343 7.42111 17.0343 5.51972 18.1013L6.4985 19.8454ZM11.7899 19.3278C13.2447 19.6373 14.3712 20.1407 15.2136 20.8022L16.4488 19.2291C15.3102 18.3351 13.8811 17.7279 12.206 17.3716L11.7899 19.3278ZM15.2194 20.8067C16.0989 21.4869 16.6564 22.2531 16.948 23.102L18.8395 22.4524C18.4038 21.1836 17.5862 20.1088 16.443 19.2246L15.2194 20.8067ZM16.9534 23.1173C17.2708 23.9949 17.3316 24.9202 17.1196 25.9168L19.0759 26.3329C19.361 24.9926 19.2859 23.6861 18.8342 22.4371L16.9534 23.1173ZM17.1196 25.9168C16.8621 27.1278 16.3708 27.9625 15.7053 28.5177L16.9864 30.0535C18.0709 29.1488 18.7476 27.8764 19.0759 26.3329L17.1196 25.9168ZM15.7143 28.5102C14.9707 29.1159 14.2168 29.4404 13.4442 29.5328L13.6816 31.5187C14.8784 31.3756 15.9798 30.8734 16.9774 30.0609L15.7143 28.5102ZM12.5848 30.3177L12.5582 30.4429L14.5144 30.859L14.541 30.7338L12.5848 30.3177ZM13.0296 31.5131C13.9763 32.0694 14.6267 32.7795 15.0265 33.6424L16.8412 32.8016C16.2544 31.5353 15.3064 30.5313 14.043 29.7888L13.0296 31.5131ZM15.0265 33.6424C15.4079 34.4655 15.5092 35.4878 15.2363 36.7705L17.1925 37.1866C17.5322 35.5898 17.4464 34.1077 16.8412 32.8016L15.0265 33.6424ZM15.2363 36.7705C14.9949 37.9053 14.5254 38.8185 13.8448 39.5446L15.304 40.9124C16.2597 39.8927 16.8836 38.6393 17.1925 37.1866L15.2363 36.7705ZM13.8406 39.5491C13.1947 40.2468 12.3425 40.7445 11.2396 41.0224L11.7281 42.9618C13.1602 42.601 14.3683 41.9231 15.3082 40.9078L13.8406 39.5491ZM11.2325 41.0242C10.1681 41.3006 8.92363 41.3085 7.47448 41.0002L7.05838 42.9565C8.7392 43.314 10.3063 43.331 11.7352 42.96L11.2325 41.0242ZM7.47448 41.0002C5.13014 40.5016 3.48933 39.5522 2.43054 38.2287L0.868791 39.4781C2.29105 41.2559 4.39474 42.3899 7.05838 42.9565L7.47448 41.0002ZM2.43481 38.2341C1.44008 36.973 1.06165 35.2643 1.47179 32.9578L-0.497317 32.6076C-0.97658 35.3029 -0.58006 37.6413 0.86452 39.4727L2.43481 38.2341ZM0.279188 33.7608L5.47495 34.866L5.89105 32.9098L0.695289 31.8046L0.279188 33.7608ZM4.70041 33.7021C4.4922 34.8034 4.60163 35.8498 5.13962 36.7559L6.8593 35.7347C6.6265 35.3427 6.52496 34.8175 6.66559 34.0736L4.70041 33.7021ZM5.14978 36.7726C5.72572 37.7007 6.68056 38.2304 7.81596 38.4719L8.23206 36.5157C7.44774 36.3489 7.05288 36.0463 6.84915 35.718L5.14978 36.7726ZM7.81596 38.4719C8.81744 38.685 9.79141 38.5911 10.6123 38.0306L9.48459 36.3788C9.23383 36.55 8.85816 36.6489 8.23206 36.5157L7.81596 38.4719ZM10.6115 38.0311C11.4199 37.4804 11.9062 36.6612 12.1146 35.6812L10.1584 35.2651C10.0384 35.8292 9.79932 36.1644 9.48544 36.3782L10.6115 38.0311ZM12.1146 35.6812C12.3749 34.4577 12.1942 33.2956 11.3464 32.414L9.90477 33.8002C10.1643 34.0701 10.3242 34.4855 10.1584 35.2651L12.1146 35.6812ZM11.3718 32.4414C10.6272 31.6068 9.40398 31.1051 7.94404 30.7946L7.52793 32.7508C8.86411 33.035 9.56728 33.423 9.8794 33.7728L11.3718 32.4414ZM7.94404 30.7946L6.94244 30.5816L6.52634 32.5378L7.52793 32.7508L7.94404 30.7946ZM7.71251 31.7677L8.63792 27.4171L6.68168 27.001L5.75627 31.3516L7.71251 31.7677ZM7.45175 28.1871L8.45334 28.4002L8.86944 26.4439L7.86785 26.2309L7.45175 28.1871ZM8.45334 28.4002C9.61387 28.647 10.6902 28.6758 11.629 28.3935L11.0533 26.4782C10.5475 26.6303 9.8373 26.6498 8.86944 26.4439L8.45334 28.4002ZM11.6394 28.3904C12.8147 28.0232 13.4854 27.0835 13.7403 25.8851L11.7841 25.469C11.6395 26.1486 11.3629 26.3814 11.043 26.4814L11.6394 28.3904ZM13.7403 25.8851C13.9395 24.9488 13.8574 24.0316 13.3478 23.2466L11.6703 24.3356C11.8177 24.5628 11.9045 24.9029 11.7841 25.469L13.7403 25.8851ZM13.3478 23.2466C12.8421 22.4677 12.0532 22.0174 11.1287 21.8208L10.7126 23.777C11.2488 23.8911 11.5188 24.1023 11.6703 24.3356L13.3478 23.2466ZM11.1287 21.8208C10.1306 21.6085 9.15551 21.7262 8.36187 22.356L9.60505 23.9227C9.80851 23.7612 10.1249 23.652 10.7126 23.777L11.1287 21.8208ZM8.34141 22.3727C7.69189 22.9166 7.25108 23.6412 6.99063 24.4904L8.90273 25.0768C9.0693 24.5337 9.31967 24.1621 9.62551 23.906L8.34141 22.3727ZM8.15473 23.8055L2.92767 22.6937L2.51157 24.6499L7.73863 25.7617L8.15473 23.8055Z" fill="#057DE5" mask="url(#path-3-outside-2_1226_150)"/>
<mask id="path-5-outside-3_1226_150" maskUnits="userSpaceOnUse" x="13.0147" y="-5.48558" width="31.3035" height="31.9819" fill="black">
<rect fill="white" x="13.0147" y="-5.48558" width="31.3035" height="31.9819"/>
<path d="M31.6587 5.08495C31.0598 4.48243 30.3378 4.10492 29.4928 3.95243C28.6622 3.77346 27.7557 3.82798 26.773 4.11599C25.0738 4.614 23.8774 5.576 23.1838 7.00198C22.4842 8.40748 22.4074 10.0417 22.9534 11.9047C23.5354 13.8905 24.5237 15.2904 25.9183 16.1043C27.3273 16.8918 28.9736 17.0095 30.857 16.4575C32.1467 16.0795 33.1358 15.434 33.8241 14.5208C34.5328 13.6017 34.9119 12.468 34.9614 11.1197L28.2977 13.0727L27.1637 9.20348L38.5871 5.85539L40.0182 10.738C40.0132 12.1622 39.7049 13.5753 39.0932 14.9773C38.5019 16.3733 37.5918 17.6293 36.3627 18.7454C35.1337 19.8614 33.6184 20.6835 31.8168 21.2115C29.6877 21.8355 27.6488 21.9329 25.7001 21.5037C23.7658 21.0479 22.0848 20.129 20.6571 18.7467C19.2499 17.3585 18.2342 15.5998 17.6102 13.4707C16.9862 11.3416 16.8918 9.31294 17.327 7.38469C17.7767 5.42997 18.6957 3.74897 20.0839 2.34171C21.4662 0.91398 23.2218 -0.111895 25.351 -0.735911C27.9304 -1.49193 30.2835 -1.50355 32.4101 -0.770761C34.5572 -0.0439717 36.2414 1.34092 37.4626 3.3839L31.6587 5.08495Z"/>
</mask>
<path d="M31.6587 5.08495C31.0598 4.48243 30.3378 4.10492 29.4928 3.95243C28.6622 3.77346 27.7557 3.82798 26.773 4.11599C25.0738 4.614 23.8774 5.576 23.1838 7.00198C22.4842 8.40748 22.4074 10.0417 22.9534 11.9047C23.5354 13.8905 24.5237 15.2904 25.9183 16.1043C27.3273 16.8918 28.9736 17.0095 30.857 16.4575C32.1467 16.0795 33.1358 15.434 33.8241 14.5208C34.5328 13.6017 34.9119 12.468 34.9614 11.1197L28.2977 13.0727L27.1637 9.20348L38.5871 5.85539L40.0182 10.738C40.0132 12.1622 39.7049 13.5753 39.0932 14.9773C38.5019 16.3733 37.5918 17.6293 36.3627 18.7454C35.1337 19.8614 33.6184 20.6835 31.8168 21.2115C29.6877 21.8355 27.6488 21.9329 25.7001 21.5037C23.7658 21.0479 22.0848 20.129 20.6571 18.7467C19.2499 17.3585 18.2342 15.5998 17.6102 13.4707C16.9862 11.3416 16.8918 9.31294 17.327 7.38469C17.7767 5.42997 18.6957 3.74897 20.0839 2.34171C21.4662 0.91398 23.2218 -0.111895 25.351 -0.735911C27.9304 -1.49193 30.2835 -1.50355 32.4101 -0.770761C34.5572 -0.0439717 36.2414 1.34092 37.4626 3.3839L31.6587 5.08495Z" fill="white"/>
<path d="M31.6587 5.08495L30.9496 5.78997L31.369 6.21193L31.94 6.04458L31.6587 5.08495ZM29.4928 3.95243L29.2821 4.92999L29.2986 4.93354L29.3152 4.93653L29.4928 3.95243ZM23.1838 7.00198L24.0791 7.4476L24.0831 7.43938L23.1838 7.00198ZM25.9183 16.1043L25.4142 16.968L25.4223 16.9727L25.4304 16.9772L25.9183 16.1043ZM33.8241 14.5208L33.0321 13.9101L33.0255 13.9189L33.8241 14.5208ZM34.9614 11.1197L35.9607 11.1563L36.0115 9.76981L34.6801 10.16L34.9614 11.1197ZM28.2977 13.0727L27.3381 13.354L27.6193 14.3136L28.5789 14.0324L28.2977 13.0727ZM27.1637 9.20348L26.8824 8.24385L25.9228 8.52511L26.204 9.48474L27.1637 9.20348ZM38.5871 5.85539L39.5468 5.57414L39.2655 4.6145L38.3059 4.89576L38.5871 5.85539ZM40.0182 10.738L41.0182 10.7415L41.0187 10.5962L40.9778 10.4567L40.0182 10.738ZM39.0932 14.9773L38.1765 14.5774L38.1723 14.5873L39.0932 14.9773ZM36.3627 18.7454L35.6905 18.005L35.6905 18.005L36.3627 18.7454ZM25.7001 21.5037L25.4708 22.477L25.4779 22.4787L25.485 22.4802L25.7001 21.5037ZM20.6571 18.7467L19.9548 19.4587L19.9615 19.4652L20.6571 18.7467ZM17.327 7.38469L16.3525 7.16048L16.3516 7.16451L17.327 7.38469ZM20.0839 2.34171L20.7959 3.04402L20.8024 3.03728L20.0839 2.34171ZM32.4101 -0.770761L32.0843 0.174699L32.0895 0.176444L32.4101 -0.770761ZM37.4626 3.3839L37.7439 4.34354L38.984 3.98006L38.3209 2.87082L37.4626 3.3839ZM32.3679 4.37993C31.6229 3.63048 30.7147 3.15678 29.6704 2.96832L29.3152 4.93653C29.9609 5.05306 30.4966 5.33438 30.9496 5.78997L32.3679 4.37993ZM29.7034 2.97486C28.6797 2.75427 27.6017 2.83105 26.4917 3.15636L27.0542 5.07562C27.9096 4.82491 28.6448 4.79265 29.2821 4.92999L29.7034 2.97486ZM26.4917 3.15636C24.5572 3.72335 23.1165 4.85416 22.2845 6.56457L24.0831 7.43938C24.6383 6.29784 25.5904 5.50466 27.0542 5.07562L26.4917 3.15636ZM22.2886 6.55637C21.4517 8.23768 21.3945 10.1411 21.9938 12.1859L23.9131 11.6234C23.4203 9.9423 23.5167 8.57728 24.079 7.44758L22.2886 6.55637ZM21.9938 12.1859C22.6267 14.3452 23.7419 15.9919 25.4142 16.968L26.4224 15.2407C25.3055 14.5888 24.4442 13.4357 23.9131 11.6234L21.9938 12.1859ZM25.4304 16.9772C27.1229 17.9231 29.0567 18.0273 31.1383 17.4172L30.5757 15.4979C28.8905 15.9918 27.5318 15.8605 26.4062 15.2314L25.4304 16.9772ZM31.1383 17.4172C32.597 16.9896 33.7832 16.2364 34.6226 15.1228L33.0255 13.9189C32.4884 14.6315 31.6965 15.1694 30.5757 15.4979L31.1383 17.4172ZM34.616 15.1315C35.4718 14.0217 35.9049 12.678 35.9607 11.1563L33.962 11.083C33.919 12.258 33.5939 13.1818 33.0322 13.9102L34.616 15.1315ZM34.6801 10.16L28.0164 12.1131L28.5789 14.0324L35.2426 12.0793L34.6801 10.16ZM29.2573 12.7915L28.1233 8.92223L26.204 9.48474L27.3381 13.354L29.2573 12.7915ZM27.4449 10.1631L38.8684 6.81503L38.3059 4.89576L26.8824 8.24385L27.4449 10.1631ZM37.6275 6.13665L39.0585 11.0193L40.9778 10.4567L39.5468 5.57414L37.6275 6.13665ZM39.0182 10.7345C39.0137 12.0124 38.7378 13.2911 38.1766 14.5774L40.0097 15.3772C40.6719 13.8595 41.0127 12.312 41.0182 10.7415L39.0182 10.7345ZM38.1723 14.5873C37.6428 15.8376 36.8226 16.977 35.6905 18.005L37.035 19.4857C38.361 18.2816 39.361 16.9089 40.014 15.3673L38.1723 14.5873ZM35.6905 18.005C34.5873 19.0068 33.211 19.7608 31.5356 20.2518L32.0981 22.1711C34.0258 21.6061 35.68 20.7161 37.035 19.4857L35.6905 18.005ZM31.5356 20.2518C29.5495 20.834 27.6819 20.9162 25.9152 20.5271L25.485 22.4802C27.6157 22.9496 29.826 22.837 32.0981 22.1711L31.5356 20.2518ZM25.9294 20.5303C24.1707 20.116 22.6508 19.2851 21.3527 18.0283L19.9615 19.4652C21.5189 20.9729 23.361 21.9799 25.4708 22.477L25.9294 20.5303ZM21.3594 18.0348C20.0873 16.78 19.152 15.1758 18.5698 13.1895L16.6506 13.752C17.3164 16.0239 18.4124 17.937 19.9548 19.4586L21.3594 18.0348ZM18.5698 13.1895C17.9877 11.2031 17.9091 9.34785 18.3025 7.60487L16.3516 7.16451C15.8745 9.27803 15.9847 11.4801 16.6506 13.752L18.5698 13.1895ZM18.3016 7.60889C18.7104 5.83199 19.5398 4.31728 20.7958 3.04399L19.372 1.63943C17.8516 3.18067 16.8431 5.02794 16.3525 7.16049L18.3016 7.60889ZM20.8024 3.03728C22.0507 1.74793 23.6495 0.804838 25.6322 0.223721L25.0697 -1.69554C22.7942 -1.02863 20.8817 0.080025 19.3655 1.64614L20.8024 3.03728ZM25.6322 0.223721C28.0525 -0.485629 30.1895 -0.478242 32.0843 0.174685L32.7359 -1.71621C30.3775 -2.52885 27.8084 -2.49823 25.0697 -1.69554L25.6322 0.223721ZM32.0895 0.176444C33.9995 0.822983 35.4983 2.04692 36.6043 3.89699L38.3209 2.87082C36.9844 0.634914 35.1149 -0.910926 32.7307 -1.71797L32.0895 0.176444ZM37.1813 2.42427L31.3775 4.12532L31.94 6.04458L37.7439 4.34354L37.1813 2.42427Z" fill="#4F4F4F" mask="url(#path-5-outside-3_1226_150)"/>
<mask id="path-7-outside-4_1226_150" maskUnits="userSpaceOnUse" x="14.3829" y="16.2837" width="28.4537" height="29.2372" fill="black">
<rect fill="white" x="14.3829" y="16.2837" width="28.4537" height="29.2372"/>
<path d="M29.2939 42.7695L23.8436 31.5564L21.8898 41.2821L16.525 40.2044L20.9493 18.1804L26.3142 19.2581L24.373 28.9211L33.6555 20.7329L39.9615 21.9997L29.26 31.0778L35.8509 44.0867L29.2939 42.7695Z"/>
</mask>
<path d="M29.2939 42.7695L23.8436 31.5564L21.8898 41.2821L16.525 40.2044L20.9493 18.1804L26.3142 19.2581L24.373 28.9211L33.6555 20.7329L39.9615 21.9997L29.26 31.0778L35.8509 44.0867L29.2939 42.7695Z" fill="white"/>
<path d="M29.2939 42.7695L28.3945 43.2067L28.6111 43.6523L29.097 43.7499L29.2939 42.7695ZM23.8436 31.5564L24.743 31.1193L23.447 28.4531L22.8632 31.3595L23.8436 31.5564ZM21.8898 41.2821L21.6929 42.2626L22.6733 42.4595L22.8702 41.4791L21.8898 41.2821ZM16.525 40.2044L15.5446 40.0075L15.3476 40.9879L16.3281 41.1848L16.525 40.2044ZM20.9493 18.1804L21.1463 17.2L20.1659 17.0031L19.9689 17.9835L20.9493 18.1804ZM26.3142 19.2581L27.2946 19.4551L27.4915 18.4747L26.5111 18.2777L26.3142 19.2581ZM24.373 28.9211L23.3926 28.7241L22.8078 31.6352L25.0345 29.671L24.373 28.9211ZM33.6555 20.7329L33.8525 19.7525L33.366 19.6548L32.994 19.983L33.6555 20.7329ZM39.9615 21.9997L40.6084 22.7623L42.1835 21.4261L40.1585 21.0193L39.9615 21.9997ZM29.26 31.0778L28.6131 30.3153L28.0112 30.8258L28.3679 31.5298L29.26 31.0778ZM35.8509 44.0867L35.654 45.0672L37.6743 45.473L36.743 43.6348L35.8509 44.0867ZM30.1933 42.3324L24.743 31.1193L22.9442 31.9936L28.3945 43.2067L30.1933 42.3324ZM22.8632 31.3595L20.9094 41.0852L22.8702 41.4791L24.824 31.7534L22.8632 31.3595ZM22.0868 40.3017L16.722 39.224L16.3281 41.1848L21.6929 42.2626L22.0868 40.3017ZM17.5054 40.4014L21.9298 18.3774L19.9689 17.9835L15.5446 40.0075L17.5054 40.4014ZM20.7524 19.1608L26.1172 20.2386L26.5111 18.2777L21.1463 17.2L20.7524 19.1608ZM25.3338 19.0612L23.3926 28.7241L25.3534 29.118L27.2946 19.4551L25.3338 19.0612ZM25.0345 29.671L34.317 21.4828L32.994 19.983L23.7115 28.1712L25.0345 29.671ZM33.4585 21.7133L39.7646 22.9801L40.1585 21.0193L33.8525 19.7525L33.4585 21.7133ZM39.3146 21.2371L28.6131 30.3153L29.9068 31.8404L40.6084 22.7623L39.3146 21.2371ZM28.3679 31.5298L34.9589 44.5387L36.743 43.6348L30.152 30.6259L28.3679 31.5298ZM36.0479 43.1063L29.4909 41.7891L29.097 43.7499L35.654 45.0672L36.0479 43.1063Z" fill="#4F4F4F" mask="url(#path-7-outside-4_1226_150)"/>
</g>
<path d="M69.32 26.14C68.2933 26.14 67.3733 25.9733 66.56 25.64C65.7467 25.3067 65.0933 24.8133 64.6 24.16C64.12 23.5067 63.8667 22.72 63.84 21.8H67.48C67.5333 22.32 67.7133 22.72 68.02 23C68.3267 23.2667 68.7267 23.4 69.22 23.4C69.7267 23.4 70.1267 23.2867 70.42 23.06C70.7133 22.82 70.86 22.4933 70.86 22.08C70.86 21.7333 70.74 21.4467 70.5 21.22C70.2733 20.9933 69.9867 20.8067 69.64 20.66C69.3067 20.5133 68.8267 20.3467 68.2 20.16C67.2933 19.88 66.5533 19.6 65.98 19.32C65.4067 19.04 64.9133 18.6267 64.5 18.08C64.0867 17.5333 63.88 16.82 63.88 15.94C63.88 14.6333 64.3533 13.6133 65.3 12.88C66.2467 12.1333 67.48 11.76 69 11.76C70.5467 11.76 71.7933 12.1333 72.74 12.88C73.6867 13.6133 74.1933 14.64 74.26 15.96H70.56C70.5333 15.5067 70.3667 15.1533 70.06 14.9C69.7533 14.6333 69.36 14.5 68.88 14.5C68.4667 14.5 68.1333 14.6133 67.88 14.84C67.6267 15.0533 67.5 15.3667 67.5 15.78C67.5 16.2333 67.7133 16.5867 68.14 16.84C68.5667 17.0933 69.2333 17.3667 70.14 17.66C71.0467 17.9667 71.78 18.26 72.34 18.54C72.9133 18.82 73.4067 19.2267 73.82 19.76C74.2333 20.2933 74.44 20.98 74.44 21.82C74.44 22.62 74.2333 23.3467 73.82 24C73.42 24.6533 72.8333 25.1733 72.06 25.56C71.2867 25.9467 70.3733 26.14 69.32 26.14ZM92.5647 14.84L89.5447 26H85.7647L84.0047 18.76L82.1847 26H78.4247L75.3847 14.84H78.8047L80.3847 22.82L82.2647 14.84H85.8847L87.7847 22.78L89.3447 14.84H92.5647ZM93.5289 18.5C93.5289 16.2067 93.9689 14.4 94.8489 13.08C95.7422 11.76 97.1756 11.1 99.1489 11.1C101.122 11.1 102.549 11.76 103.429 13.08C104.322 14.4 104.769 16.2067 104.769 18.5C104.769 20.82 104.322 22.64 103.429 23.96C102.549 25.28 101.122 25.94 99.1489 25.94C97.1756 25.94 95.7422 25.28 94.8489 23.96C93.9689 22.64 93.5289 20.82 93.5289 18.5ZM101.409 18.5C101.409 17.1533 101.262 16.12 100.969 15.4C100.676 14.6667 100.069 14.3 99.1489 14.3C98.2289 14.3 97.6222 14.6667 97.3289 15.4C97.0356 16.12 96.8889 17.1533 96.8889 18.5C96.8889 19.4067 96.9422 20.16 97.0489 20.76C97.1556 21.3467 97.3689 21.8267 97.6889 22.2C98.0222 22.56 98.5089 22.74 99.1489 22.74C99.7889 22.74 100.269 22.56 100.589 22.2C100.922 21.8267 101.142 21.3467 101.249 20.76C101.356 20.16 101.409 19.4067 101.409 18.5ZM106.576 18.5C106.576 16.2067 107.016 14.4 107.896 13.08C108.789 11.76 110.222 11.1 112.196 11.1C114.169 11.1 115.596 11.76 116.476 13.08C117.369 14.4 117.816 16.2067 117.816 18.5C117.816 20.82 117.369 22.64 116.476 23.96C115.596 25.28 114.169 25.94 112.196 25.94C110.222 25.94 108.789 25.28 107.896 23.96C107.016 22.64 106.576 20.82 106.576 18.5ZM114.456 18.5C114.456 17.1533 114.309 16.12 114.016 15.4C113.722 14.6667 113.116 14.3 112.196 14.3C111.276 14.3 110.669 14.6667 110.376 15.4C110.082 16.12 109.936 17.1533 109.936 18.5C109.936 19.4067 109.989 20.16 110.096 20.76C110.202 21.3467 110.416 21.8267 110.736 22.2C111.069 22.56 111.556 22.74 112.196 22.74C112.836 22.74 113.316 22.56 113.636 22.2C113.969 21.8267 114.189 21.3467 114.296 20.76C114.402 20.16 114.456 19.4067 114.456 18.5ZM123.383 16.42C123.716 15.9 124.176 15.48 124.763 15.16C125.349 14.84 126.036 14.68 126.823 14.68C127.743 14.68 128.576 14.9133 129.323 15.38C130.069 15.8467 130.656 16.5133 131.083 17.38C131.523 18.2467 131.743 19.2533 131.743 20.4C131.743 21.5467 131.523 22.56 131.083 23.44C130.656 24.3067 130.069 24.98 129.323 25.46C128.576 25.9267 127.743 26.16 126.823 26.16C126.049 26.16 125.363 26 124.763 25.68C124.176 25.36 123.716 24.9467 123.383 24.44V31.32H119.963V14.84H123.383V16.42ZM128.263 20.4C128.263 19.5467 128.023 18.88 127.543 18.4C127.076 17.9067 126.496 17.66 125.803 17.66C125.123 17.66 124.543 17.9067 124.063 18.4C123.596 18.8933 123.363 19.5667 123.363 20.42C123.363 21.2733 123.596 21.9467 124.063 22.44C124.543 22.9333 125.123 23.18 125.803 23.18C126.483 23.18 127.063 22.9333 127.543 22.44C128.023 21.9333 128.263 21.2533 128.263 20.4ZM142.857 16.4C142.604 15.9333 142.237 15.58 141.757 15.34C141.29 15.0867 140.737 14.96 140.097 14.96C138.99 14.96 138.104 15.3267 137.437 16.06C136.77 16.78 136.437 17.7467 136.437 18.96C136.437 20.2533 136.784 21.2667 137.477 22C138.184 22.72 139.15 23.08 140.377 23.08C141.217 23.08 141.924 22.8667 142.497 22.44C143.084 22.0133 143.51 21.4 143.777 20.6H139.437V18.08H146.877V21.26C146.624 22.1133 146.19 22.9067 145.577 23.64C144.977 24.3733 144.21 24.9667 143.277 25.42C142.344 25.8733 141.29 26.1 140.117 26.1C138.73 26.1 137.49 25.8 136.397 25.2C135.317 24.5867 134.47 23.74 133.857 22.66C133.257 21.58 132.957 20.3467 132.957 18.96C132.957 17.5733 133.257 16.34 133.857 15.26C134.47 14.1667 135.317 13.32 136.397 12.72C137.477 12.1067 138.71 11.8 140.097 11.8C141.777 11.8 143.19 12.2067 144.337 13.02C145.497 13.8333 146.264 14.96 146.637 16.4H142.857ZM159.291 20.24C159.291 20.56 159.271 20.8933 159.231 21.24H151.491C151.545 21.9333 151.765 22.4667 152.151 22.84C152.551 23.2 153.038 23.38 153.611 23.38C154.465 23.38 155.058 23.02 155.391 22.3H159.031C158.845 23.0333 158.505 23.6933 158.011 24.28C157.531 24.8667 156.925 25.3267 156.191 25.66C155.458 25.9933 154.638 26.16 153.731 26.16C152.638 26.16 151.665 25.9267 150.811 25.46C149.958 24.9933 149.291 24.3267 148.811 23.46C148.331 22.5933 148.091 21.58 148.091 20.42C148.091 19.26 148.325 18.2467 148.791 17.38C149.271 16.5133 149.938 15.8467 150.791 15.38C151.645 14.9133 152.625 14.68 153.731 14.68C154.811 14.68 155.771 14.9067 156.611 15.36C157.451 15.8133 158.105 16.46 158.571 17.3C159.051 18.14 159.291 19.12 159.291 20.24ZM155.791 19.34C155.791 18.7533 155.591 18.2867 155.191 17.94C154.791 17.5933 154.291 17.42 153.691 17.42C153.118 17.42 152.631 17.5867 152.231 17.92C151.845 18.2533 151.605 18.7267 151.511 19.34H155.791ZM167.895 14.72C169.202 14.72 170.242 15.1467 171.015 16C171.802 16.84 172.195 18 172.195 19.48V26H168.795V19.94C168.795 19.1933 168.602 18.6133 168.215 18.2C167.829 17.7867 167.309 17.58 166.655 17.58C166.002 17.58 165.482 17.7867 165.095 18.2C164.709 18.6133 164.515 19.1933 164.515 19.94V26H161.095V14.84H164.515V16.32C164.862 15.8267 165.329 15.44 165.915 15.16C166.502 14.8667 167.162 14.72 167.895 14.72ZM185.092 20.24C185.092 20.56 185.072 20.8933 185.032 21.24H177.292C177.345 21.9333 177.565 22.4667 177.952 22.84C178.352 23.2 178.839 23.38 179.412 23.38C180.265 23.38 180.859 23.02 181.192 22.3H184.832C184.645 23.0333 184.305 23.6933 183.812 24.28C183.332 24.8667 182.725 25.3267 181.992 25.66C181.259 25.9933 180.439 26.16 179.532 26.16C178.439 26.16 177.465 25.9267 176.612 25.46C175.759 24.9933 175.092 24.3267 174.612 23.46C174.132 22.5933 173.892 21.58 173.892 20.42C173.892 19.26 174.125 18.2467 174.592 17.38C175.072 16.5133 175.739 15.8467 176.592 15.38C177.445 14.9133 178.425 14.68 179.532 14.68C180.612 14.68 181.572 14.9067 182.412 15.36C183.252 15.8133 183.905 16.46 184.372 17.3C184.852 18.14 185.092 19.12 185.092 20.24ZM181.592 19.34C181.592 18.7533 181.392 18.2867 180.992 17.94C180.592 17.5933 180.092 17.42 179.492 17.42C178.919 17.42 178.432 17.5867 178.032 17.92C177.645 18.2533 177.405 18.7267 177.312 19.34H181.592ZM190.316 16.7C190.716 16.0867 191.216 15.6067 191.816 15.26C192.416 14.9 193.083 14.72 193.816 14.72V18.34H192.876C192.023 18.34 191.383 18.5267 190.956 18.9C190.53 19.26 190.316 19.9 190.316 20.82V26H186.896V14.84H190.316V16.7ZM194.771 20.4C194.771 19.2533 194.984 18.2467 195.411 17.38C195.851 16.5133 196.444 15.8467 197.191 15.38C197.938 14.9133 198.771 14.68 199.691 14.68C200.478 14.68 201.164 14.84 201.751 15.16C202.351 15.48 202.811 15.9 203.131 16.42V14.84H206.551V26H203.131V24.42C202.798 24.94 202.331 25.36 201.731 25.68C201.144 26 200.458 26.16 199.671 26.16C198.764 26.16 197.938 25.9267 197.191 25.46C196.444 24.98 195.851 24.3067 195.411 23.44C194.984 22.56 194.771 21.5467 194.771 20.4ZM203.131 20.42C203.131 19.5667 202.891 18.8933 202.411 18.4C201.944 17.9067 201.371 17.66 200.691 17.66C200.011 17.66 199.431 17.9067 198.951 18.4C198.484 18.88 198.251 19.5467 198.251 20.4C198.251 21.2533 198.484 21.9333 198.951 22.44C199.431 22.9333 200.011 23.18 200.691 23.18C201.371 23.18 201.944 22.9333 202.411 22.44C202.891 21.9467 203.131 21.2733 203.131 20.42ZM215.245 23.1V26H213.505C212.265 26 211.298 25.7 210.605 25.1C209.912 24.4867 209.565 23.4933 209.565 22.12V17.68H208.205V14.84H209.565V12.12H212.985V14.84H215.225V17.68H212.985V22.16C212.985 22.4933 213.065 22.7333 213.225 22.88C213.385 23.0267 213.652 23.1 214.025 23.1H215.245ZM222.23 26.16C221.137 26.16 220.15 25.9267 219.27 25.46C218.403 24.9933 217.717 24.3267 217.21 23.46C216.717 22.5933 216.47 21.58 216.47 20.42C216.47 19.2733 216.723 18.2667 217.23 17.4C217.737 16.52 218.43 15.8467 219.31 15.38C220.19 14.9133 221.177 14.68 222.27 14.68C223.363 14.68 224.35 14.9133 225.23 15.38C226.11 15.8467 226.803 16.52 227.31 17.4C227.817 18.2667 228.07 19.2733 228.07 20.42C228.07 21.5667 227.81 22.58 227.29 23.46C226.783 24.3267 226.083 24.9933 225.19 25.46C224.31 25.9267 223.323 26.16 222.23 26.16ZM222.23 23.2C222.883 23.2 223.437 22.96 223.89 22.48C224.357 22 224.59 21.3133 224.59 20.42C224.59 19.5267 224.363 18.84 223.91 18.36C223.47 17.88 222.923 17.64 222.27 17.64C221.603 17.64 221.05 17.88 220.61 18.36C220.17 18.8267 219.95 19.5133 219.95 20.42C219.95 21.3133 220.163 22 220.59 22.48C221.03 22.96 221.577 23.2 222.23 23.2ZM233.305 16.7C233.705 16.0867 234.205 15.6067 234.805 15.26C235.405 14.9 236.071 14.72 236.805 14.72V18.34H235.865C235.011 18.34 234.371 18.5267 233.945 18.9C233.518 19.26 233.305 19.9 233.305 20.82V26H229.885V14.84H233.305V16.7Z" fill="#4F4F4F"/>
<path d="M238.219 15.52C238.273 14.0933 238.739 12.9933 239.619 12.22C240.499 11.4467 241.693 11.06 243.199 11.06C244.199 11.06 245.053 11.2333 245.759 11.58C246.479 11.9267 247.019 12.4 247.379 13C247.753 13.6 247.939 14.2733 247.939 15.02C247.939 15.9 247.719 16.62 247.279 17.18C246.839 17.7267 246.326 18.1 245.739 18.3V18.38C246.499 18.6333 247.099 19.0533 247.539 19.64C247.979 20.2267 248.199 20.98 248.199 21.9C248.199 22.7267 248.006 23.46 247.619 24.1C247.246 24.7267 246.693 25.22 245.959 25.58C245.239 25.94 244.379 26.12 243.379 26.12C241.779 26.12 240.499 25.7267 239.539 24.94C238.593 24.1533 238.093 22.9667 238.039 21.38H241.359C241.373 21.9667 241.539 22.4333 241.859 22.78C242.179 23.1133 242.646 23.28 243.259 23.28C243.779 23.28 244.179 23.1333 244.459 22.84C244.753 22.5333 244.899 22.1333 244.899 21.64C244.899 21 244.693 20.54 244.279 20.26C243.879 19.9667 243.233 19.82 242.339 19.82H241.699V17.04H242.339C243.019 17.04 243.566 16.9267 243.979 16.7C244.406 16.46 244.619 16.04 244.619 15.44C244.619 14.96 244.486 14.5867 244.219 14.32C243.953 14.0533 243.586 13.92 243.119 13.92C242.613 13.92 242.233 14.0733 241.979 14.38C241.739 14.6867 241.599 15.0667 241.559 15.52H238.219ZM258.689 26L253.969 19.8V26H250.549V11.96H253.969V18.12L258.649 11.96H262.669L257.229 18.84L262.869 26H258.689Z" fill="#057DE5"/>
<defs>
<clipPath id="clip0_1226_150">
<rect width="40" height="40" fill="white"/>
</clipPath>
</defs>
</svg>
