<svg width="265" height="40" viewBox="0 0 265 40" fill="none" xmlns="http://www.w3.org/2000/svg">
<g clip-path="url(#clip0_1226_152)">
<rect x="0.128052" width="40" height="40" fill="#057DE5"/>
<mask id="path-3-outside-1_1226_152" maskUnits="userSpaceOnUse" x="-1.04088" y="-1.58882" width="21.0756" height="26.818" fill="black">
<rect fill="white" x="-1.04088" y="-1.58882" width="21.0756" height="26.818"/>
<path d="M10.0808 23.0295C8.43955 23.0986 6.95764 22.8941 5.63503 22.4159C4.31242 21.9378 3.23482 21.1931 2.40223 20.1819C1.59096 19.1698 1.13306 17.9293 1.02853 16.4604L6.84738 16.2155C6.96762 17.0431 7.28228 17.6705 7.79135 18.0974C8.29952 18.5031 8.94793 18.6893 9.73656 18.6561C10.5465 18.6221 11.1783 18.414 11.632 18.0319C12.0848 17.6285 12.2972 17.0964 12.2694 16.4357C12.2461 15.8815 12.035 15.4313 11.6361 15.0851C11.2585 14.738 10.7877 14.4589 10.2236 14.2478C9.6809 14.0357 8.90237 13.8016 7.88803 13.5453C6.41981 13.1587 5.21801 12.7609 4.28265 12.3519C3.34729 11.9429 2.53085 11.3153 1.83332 10.4692C1.1358 9.62314 0.757431 8.49672 0.698226 7.08996C0.610316 5.00114 1.29836 3.33874 2.76235 2.10276C4.22544 0.845458 6.17191 0.165677 8.60176 0.0634142C11.0742 -0.0406424 13.0923 0.472289 14.6558 1.60221C16.2185 2.71082 17.0975 4.31794 17.2929 6.42359L11.3781 6.67252C11.305 5.94962 11.0148 5.396 10.5075 5.01166C9.99934 4.606 9.36159 4.41932 8.59427 4.45161C7.93352 4.47942 7.40829 4.68302 7.01856 5.06241C6.62794 5.42048 6.44653 5.92989 6.47434 6.59064C6.50484 7.31533 6.86964 7.86581 7.56875 8.24208C8.26786 8.61835 9.35197 9.01045 10.8211 9.41837C12.2911 9.8476 13.4831 10.2672 14.3972 10.6771C15.3325 11.0861 16.1485 11.703 16.8452 12.5278C17.5418 13.3526 17.9184 14.4364 17.9749 15.7792C18.0287 17.0581 17.7472 18.2336 17.1304 19.3058C16.5349 20.3771 15.6321 21.2479 14.4219 21.918C13.2116 22.5882 11.7646 22.9587 10.0808 23.0295Z"/>
</mask>
<path d="M10.0808 23.0295C8.43955 23.0986 6.95764 22.8941 5.63503 22.4159C4.31242 21.9378 3.23482 21.1931 2.40223 20.1819C1.59096 19.1698 1.13306 17.9293 1.02853 16.4604L6.84738 16.2155C6.96762 17.0431 7.28228 17.6705 7.79135 18.0974C8.29952 18.5031 8.94793 18.6893 9.73656 18.6561C10.5465 18.6221 11.1783 18.414 11.632 18.0319C12.0848 17.6285 12.2972 17.0964 12.2694 16.4357C12.2461 15.8815 12.035 15.4313 11.6361 15.0851C11.2585 14.738 10.7877 14.4589 10.2236 14.2478C9.6809 14.0357 8.90237 13.8016 7.88803 13.5453C6.41981 13.1587 5.21801 12.7609 4.28265 12.3519C3.34729 11.9429 2.53085 11.3153 1.83332 10.4692C1.1358 9.62314 0.757431 8.49672 0.698226 7.08996C0.610316 5.00114 1.29836 3.33874 2.76235 2.10276C4.22544 0.845458 6.17191 0.165677 8.60176 0.0634142C11.0742 -0.0406424 13.0923 0.472289 14.6558 1.60221C16.2185 2.71082 17.0975 4.31794 17.2929 6.42359L11.3781 6.67252C11.305 5.94962 11.0148 5.396 10.5075 5.01166C9.99934 4.606 9.36159 4.41932 8.59427 4.45161C7.93352 4.47942 7.40829 4.68302 7.01856 5.06241C6.62794 5.42048 6.44653 5.92989 6.47434 6.59064C6.50484 7.31533 6.86964 7.86581 7.56875 8.24208C8.26786 8.61835 9.35197 9.01045 10.8211 9.41837C12.2911 9.8476 13.4831 10.2672 14.3972 10.6771C15.3325 11.0861 16.1485 11.703 16.8452 12.5278C17.5418 13.3526 17.9184 14.4364 17.9749 15.7792C18.0287 17.0581 17.7472 18.2336 17.1304 19.3058C16.5349 20.3771 15.6321 21.2479 14.4219 21.918C13.2116 22.5882 11.7646 22.9587 10.0808 23.0295Z" fill="#057DE5"/>
<path d="M5.63503 22.4159L5.29505 23.3564L5.29505 23.3564L5.63503 22.4159ZM2.40223 20.1819L1.62189 20.8074L1.63024 20.8175L2.40223 20.1819ZM1.02853 16.4604L0.986483 15.4612L-0.0420119 15.5045L0.0310541 16.5313L1.02853 16.4604ZM6.84738 16.2155L7.83699 16.0717L7.70722 15.1784L6.80533 15.2164L6.84738 16.2155ZM7.79135 18.0974L7.14873 18.8636L7.15801 18.8714L7.16748 18.879L7.79135 18.0974ZM11.632 18.0319L12.2762 18.7968L12.2868 18.7878L12.2972 18.7785L11.632 18.0319ZM11.6361 15.0851L10.9593 15.8213L10.9699 15.831L10.9806 15.8404L11.6361 15.0851ZM10.2236 14.2478L9.85973 15.1792L9.86638 15.1818L9.87306 15.1843L10.2236 14.2478ZM7.88803 13.5453L7.63338 14.5124L7.6431 14.5149L7.88803 13.5453ZM4.28265 12.3519L3.88199 13.2681L4.28265 12.3519ZM1.83332 10.4692L2.60492 9.83311L2.60492 9.83311L1.83332 10.4692ZM2.76235 2.10276L3.40747 2.86689L3.4141 2.86119L2.76235 2.10276ZM14.6558 1.60221L14.0701 2.41275L14.0772 2.41781L14.6558 1.60221ZM17.2929 6.42359L17.3349 7.4227L18.3858 7.37848L18.2886 6.3312L17.2929 6.42359ZM11.3781 6.67252L10.3832 6.77316L10.4781 7.71128L11.4202 7.67163L11.3781 6.67252ZM10.5075 5.01166L9.88364 5.79319L9.89353 5.80108L9.90361 5.80872L10.5075 5.01166ZM7.01856 5.06241L7.69429 5.79956L7.70535 5.78942L7.7161 5.77895L7.01856 5.06241ZM7.56875 8.24208L8.04268 7.36152L8.04268 7.36152L7.56875 8.24208ZM10.8211 9.41837L11.1014 8.45837L11.0886 8.45482L10.8211 9.41837ZM14.3972 10.6771L13.988 11.5896L13.9965 11.5933L14.3972 10.6771ZM16.8452 12.5278L16.0812 13.1731L16.0812 13.1731L16.8452 12.5278ZM17.1304 19.3058L16.2636 18.8072L16.2599 18.8136L16.2564 18.82L17.1304 19.3058ZM14.4219 21.918L13.9374 21.0432L13.9374 21.0432L14.4219 21.918ZM10.0387 22.0304C8.50592 22.0949 7.15655 21.9026 5.97501 21.4755L5.29505 23.3564C6.75872 23.8855 8.37318 24.1023 10.1228 24.0287L10.0387 22.0304ZM5.97501 21.4755C4.80826 21.0537 3.88436 20.4088 3.17423 19.5463L1.63024 20.8175C2.58528 21.9775 3.81659 22.8219 5.29505 23.3564L5.97501 21.4755ZM3.18251 19.5565C2.51497 18.7237 2.11814 17.6841 2.02601 16.3894L0.0310541 16.5313C0.147974 18.1744 0.666945 19.6159 1.62196 20.8073L3.18251 19.5565ZM1.07058 17.4595L6.88943 17.2146L6.80533 15.2164L0.986483 15.4612L1.07058 17.4595ZM5.85777 16.3592C6.00385 17.3648 6.4065 18.2411 7.14873 18.8636L8.43397 17.3313C8.15806 17.0998 7.93139 16.7215 7.83699 16.0717L5.85777 16.3592ZM7.16748 18.879C7.90237 19.4656 8.80287 19.6963 9.77861 19.6553L9.69452 17.657C9.09298 17.6823 8.69668 17.5406 8.41522 17.3159L7.16748 18.879ZM9.77861 19.6553C10.7296 19.6152 11.6007 19.3656 12.2762 18.7968L10.9878 17.267C10.7559 17.4623 10.3635 17.6289 9.69452 17.657L9.77861 19.6553ZM12.2972 18.7785C12.9961 18.1559 13.3077 17.3231 13.2686 16.3936L11.2703 16.4777C11.2868 16.8697 11.1735 17.1011 10.9668 17.2852L12.2972 18.7785ZM13.2686 16.3936C13.2343 15.58 12.9096 14.8663 12.2915 14.3299L10.9806 15.8404C11.1603 15.9963 11.2579 16.183 11.2703 16.4777L13.2686 16.3936ZM12.3128 14.3489C11.8254 13.9009 11.2382 13.5598 10.5742 13.3112L9.87306 15.1843C10.3372 15.358 10.6916 15.5752 10.9593 15.8213L12.3128 14.3489ZM10.5875 13.3163C9.98697 13.0817 9.16136 12.8356 8.13295 12.5758L7.6431 14.5149C8.64337 14.7676 9.37483 14.9898 9.85973 15.1792L10.5875 13.3163ZM8.14266 12.5783C6.70279 12.1992 5.5546 11.8167 4.68332 11.4357L3.88199 13.2681C4.88143 13.7052 6.13682 14.1183 7.63339 14.5124L8.14266 12.5783ZM4.68332 11.4357C3.90242 11.0942 3.2101 10.5672 2.60492 9.83311L1.06173 11.1053C1.85161 12.0634 2.79217 12.7915 3.88199 13.2681L4.68332 11.4357ZM2.60492 9.83311C2.08085 9.19742 1.75001 8.29937 1.69734 7.04791L-0.300889 7.13201C-0.235149 8.69406 0.190745 10.0489 1.06173 11.1053L2.60492 9.83311ZM1.69734 7.04791C1.62107 5.2357 2.2035 3.8833 3.40744 2.86686L2.11725 1.33866C0.393218 2.79419 -0.40044 4.76659 -0.300889 7.13201L1.69734 7.04791ZM3.4141 2.86119C4.66645 1.78499 6.37885 1.15785 8.64381 1.06253L8.55971 -0.935701C5.96497 -0.826499 3.78443 -0.0940707 2.11059 1.34433L3.4141 2.86119ZM8.64381 1.06253C10.9561 0.965216 12.7347 1.44771 14.0701 2.41272L15.2415 0.791698C13.4498 -0.503131 11.1924 -1.0465 8.55971 -0.935701L8.64381 1.06253ZM14.0772 2.41781C15.3756 3.33894 16.1256 4.66679 16.2972 6.51598L18.2886 6.3312C18.0694 3.96909 17.0614 2.08269 15.2344 0.786608L14.0772 2.41781ZM17.2508 5.42447L11.3361 5.6734L11.4202 7.67163L17.3349 7.4227L17.2508 5.42447ZM12.373 6.57187C12.2763 5.61565 11.8724 4.79115 11.1114 4.2146L9.90361 5.80872C10.1572 6.00085 10.3337 6.28359 10.3832 6.77316L12.373 6.57187ZM11.1314 4.23013C10.4016 3.64759 9.51451 3.41199 8.55222 3.45249L8.63632 5.45072C9.20867 5.42664 9.59704 5.5644 9.88364 5.79319L11.1314 4.23013ZM8.55222 3.45249C7.70129 3.48831 6.92324 3.75962 6.32102 4.34586L7.7161 5.77895C7.89334 5.60642 8.16575 5.47053 8.63632 5.45072L8.55222 3.45249ZM6.34283 4.32526C5.68226 4.93079 5.43836 5.75669 5.47522 6.63269L7.47346 6.54859C7.45471 6.10309 7.57361 5.91018 7.69429 5.79956L6.34283 4.32526ZM5.47522 6.63269C5.52218 7.74847 6.12045 8.59823 7.09482 9.12265L8.04268 7.36152C7.61883 7.1334 7.4875 6.88219 7.47346 6.54859L5.47522 6.63269ZM7.09482 9.12265C7.89451 9.55305 9.06551 9.96874 10.5535 10.3819L11.0886 8.45482C9.63843 8.05216 8.6412 7.68366 8.04268 7.36152L7.09482 9.12265ZM10.5408 10.3783C11.9872 10.8006 13.1315 11.2054 13.988 11.5896L14.8064 9.76467C13.8348 9.32893 12.595 8.89458 11.1014 8.45845L10.5408 10.3783ZM13.9965 11.5933C14.7836 11.9375 15.4775 12.4583 16.0812 13.1731L17.6091 11.8825C16.8196 10.9477 15.8815 10.2348 14.7978 9.76089L13.9965 11.5933ZM16.0812 13.1731C16.6027 13.7905 16.9262 14.6446 16.9758 15.8212L18.974 15.7371C18.9105 14.2281 18.4809 12.9147 17.6091 11.8825L16.0812 13.1731ZM16.9758 15.8212C17.0219 16.9179 16.7826 17.9049 16.2636 18.8072L17.9972 19.8044C18.7118 18.5622 19.0355 17.1982 18.974 15.7371L16.9758 15.8212ZM16.2564 18.82C15.7631 19.7074 15.0056 20.4517 13.9374 21.0432L14.9063 22.7928C16.2586 22.044 17.3068 21.0469 18.0045 19.7916L16.2564 18.82ZM13.9374 21.0432C12.8895 21.6235 11.6008 21.9647 10.0387 22.0304L10.1228 24.0287C11.9284 23.9527 13.5338 23.5529 14.9063 22.7928L13.9374 21.0432Z" fill="white" mask="url(#path-3-outside-1_1226_152)"/>
<mask id="path-5-outside-2_1226_152" maskUnits="userSpaceOnUse" x="-2.65331" y="15.2804" width="24.2016" height="30.3621" fill="black">
<rect fill="white" x="-2.65331" y="15.2804" width="24.2016" height="30.3621"/>
<path d="M2.84767 23.6718C3.40605 21.4568 4.50254 19.8907 6.13716 18.9734C7.77178 18.056 9.76805 17.8481 12.126 18.3497C13.691 18.6826 14.9687 19.2379 15.9592 20.0157C16.9706 20.7979 17.6582 21.7184 18.0218 22.7772C18.4064 23.8405 18.4744 24.9564 18.2258 26.1249C17.9329 27.5021 17.3489 28.5556 16.4739 29.2856C15.6033 29.9946 14.6757 30.408 13.691 30.5257L13.6643 30.6509C14.7694 31.3004 15.5686 32.1574 16.0619 33.222C16.5552 34.2866 16.6487 35.5388 16.3425 36.9786C16.0673 38.2723 15.5206 39.3556 14.7025 40.2285C13.9096 41.0849 12.8794 41.6728 11.6119 41.9921C10.3653 42.3158 8.95947 42.3112 7.39448 41.9783C4.89049 41.4457 3.01824 40.4041 1.77772 38.8534C0.558062 37.3071 0.170586 35.2836 0.61529 32.7827L5.81105 33.8879C5.63663 34.8104 5.74212 35.5962 6.12752 36.2453C6.51735 36.8735 7.1922 37.2897 8.15206 37.4938C8.96585 37.6669 9.64067 37.5705 10.1765 37.2047C10.7377 36.8224 11.1003 36.2452 11.2646 35.4732C11.4776 34.4716 11.3073 33.6829 10.7536 33.1071C10.2253 32.5149 9.26209 32.0701 7.86404 31.7727L6.86244 31.5597L7.78785 27.209L8.78945 27.422C9.85364 27.6484 10.7469 27.653 11.4692 27.4359C12.2168 27.2023 12.6905 26.616 12.8902 25.677C13.05 24.9258 12.9656 24.2972 12.6371 23.7911C12.3085 23.285 11.7791 22.9543 11.0487 22.7989C10.2558 22.6303 9.61006 22.7437 9.11151 23.1393C8.63383 23.5394 8.28824 24.0875 8.07473 24.7836L2.84767 23.6718Z"/>
</mask>
<path d="M2.84767 23.6718C3.40605 21.4568 4.50254 19.8907 6.13716 18.9734C7.77178 18.056 9.76805 17.8481 12.126 18.3497C13.691 18.6826 14.9687 19.2379 15.9592 20.0157C16.9706 20.7979 17.6582 21.7184 18.0218 22.7772C18.4064 23.8405 18.4744 24.9564 18.2258 26.1249C17.9329 27.5021 17.3489 28.5556 16.4739 29.2856C15.6033 29.9946 14.6757 30.408 13.691 30.5257L13.6643 30.6509C14.7694 31.3004 15.5686 32.1574 16.0619 33.222C16.5552 34.2866 16.6487 35.5388 16.3425 36.9786C16.0673 38.2723 15.5206 39.3556 14.7025 40.2285C13.9096 41.0849 12.8794 41.6728 11.6119 41.9921C10.3653 42.3158 8.95947 42.3112 7.39448 41.9783C4.89049 41.4457 3.01824 40.4041 1.77772 38.8534C0.558062 37.3071 0.170586 35.2836 0.61529 32.7827L5.81105 33.8879C5.63663 34.8104 5.74212 35.5962 6.12752 36.2453C6.51735 36.8735 7.1922 37.2897 8.15206 37.4938C8.96585 37.6669 9.64067 37.5705 10.1765 37.2047C10.7377 36.8224 11.1003 36.2452 11.2646 35.4732C11.4776 34.4716 11.3073 33.6829 10.7536 33.1071C10.2253 32.5149 9.26209 32.0701 7.86404 31.7727L6.86244 31.5597L7.78785 27.209L8.78945 27.422C9.85364 27.6484 10.7469 27.653 11.4692 27.4359C12.2168 27.2023 12.6905 26.616 12.8902 25.677C13.05 24.9258 12.9656 24.2972 12.6371 23.7911C12.3085 23.285 11.7791 22.9543 11.0487 22.7989C10.2558 22.6303 9.61006 22.7437 9.11151 23.1393C8.63383 23.5394 8.28824 24.0875 8.07473 24.7836L2.84767 23.6718Z" fill="#4F4F4F"/>
<path d="M2.84767 23.6718L1.87801 23.4273L1.62425 24.4339L2.63962 24.6499L2.84767 23.6718ZM6.13716 18.9734L6.62655 19.8454L6.62655 19.8454L6.13716 18.9734ZM15.9592 20.0157L15.3416 20.8022L15.3475 20.8067L15.9592 20.0157ZM18.0218 22.7772L17.0761 23.102L17.0787 23.1097L17.0814 23.1173L18.0218 22.7772ZM16.4739 29.2856L17.1054 30.061L17.1145 30.0535L16.4739 29.2856ZM13.691 30.5257L13.5723 29.5328L12.8617 29.6177L12.7129 30.3177L13.691 30.5257ZM13.6643 30.6509L12.6862 30.4429L12.5363 31.1479L13.1577 31.5131L13.6643 30.6509ZM16.0619 33.222L16.9692 32.8016L16.0619 33.222ZM14.7025 40.2285L13.9728 39.5446L13.9686 39.5491L14.7025 40.2285ZM11.6119 41.9921L11.3676 41.0223L11.3606 41.0242L11.6119 41.9921ZM1.77772 38.8534L0.992554 39.4727L0.996843 39.4781L1.77772 38.8534ZM0.61529 32.7827L0.823341 31.8046L-0.188208 31.5894L-0.369265 32.6076L0.61529 32.7827ZM5.81105 33.8879L6.79365 34.0736L6.97524 33.1131L6.0191 32.9098L5.81105 33.8879ZM6.12752 36.2453L5.26767 36.7559L5.27267 36.7643L5.27783 36.7726L6.12752 36.2453ZM10.1765 37.2047L9.61349 36.3782L9.61264 36.3788L10.1765 37.2047ZM10.7536 33.1071L10.0075 33.7728L10.0199 33.7868L10.0328 33.8002L10.7536 33.1071ZM6.86244 31.5597L5.88433 31.3516L5.67628 32.3297L6.65439 32.5378L6.86244 31.5597ZM7.78785 27.209L7.9959 26.2309L7.01778 26.0228L6.80973 27.001L7.78785 27.209ZM11.4692 27.4359L11.7571 28.3936L11.7674 28.3904L11.4692 27.4359ZM12.6371 23.7911L13.4758 23.2466L13.4758 23.2466L12.6371 23.7911ZM9.11151 23.1393L8.48992 22.356L8.47958 22.3642L8.46946 22.3727L9.11151 23.1393ZM8.07473 24.7836L7.86668 25.7617L8.7623 25.9522L9.03078 25.0768L8.07473 24.7836ZM3.81733 23.9162C4.32435 21.905 5.28238 20.5998 6.62655 19.8454L5.64777 18.1013C3.72271 19.1816 2.48774 21.0087 1.87801 23.4273L3.81733 23.9162ZM6.62655 19.8454C7.9944 19.0778 9.72786 18.862 11.9179 19.3278L12.334 17.3716C9.80823 16.8343 7.54916 17.0343 5.64777 18.1013L6.62655 19.8454ZM11.9179 19.3278C13.3728 19.6373 14.4992 20.1407 15.3417 20.8022L16.5768 19.2291C15.4382 18.3351 14.0091 17.7279 12.334 17.3716L11.9179 19.3278ZM15.3475 20.8067C16.227 21.4869 16.7845 22.2531 17.0761 23.102L18.9676 22.4524C18.5318 21.1836 17.7143 20.1088 16.571 19.2246L15.3475 20.8067ZM17.0814 23.1173C17.3988 23.9949 17.4597 24.9202 17.2477 25.9168L19.2039 26.3329C19.489 24.9926 19.4139 23.6861 18.9622 22.4371L17.0814 23.1173ZM17.2477 25.9168C16.9901 27.1278 16.4989 27.9625 15.8333 28.5177L17.1145 30.0535C18.1989 29.1488 18.8756 27.8764 19.2039 26.3329L17.2477 25.9168ZM15.8424 28.5102C15.0987 29.1159 14.3449 29.4404 13.5723 29.5328L13.8097 31.5187C15.0065 31.3756 16.1079 30.8734 17.1054 30.0609L15.8424 28.5102ZM12.7129 30.3177L12.6862 30.4429L14.6425 30.859L14.6691 30.7338L12.7129 30.3177ZM13.1577 31.5131C14.1043 32.0694 14.7547 32.7795 15.1546 33.6424L16.9692 32.8016C16.3825 31.5353 15.4345 30.5313 14.171 29.7888L13.1577 31.5131ZM15.1546 33.6424C15.5359 34.4655 15.6372 35.4878 15.3644 36.7705L17.3206 37.1866C17.6602 35.5898 17.5745 34.1077 16.9692 32.8016L15.1546 33.6424ZM15.3644 36.7705C15.123 37.9053 14.6535 38.8185 13.9728 39.5446L15.4321 40.9124C16.3878 39.8927 17.0116 38.6393 17.3206 37.1866L15.3644 36.7705ZM13.9686 39.5491C13.3228 40.2468 12.4706 40.7445 11.3676 41.0224L11.8562 42.9618C13.2882 42.601 14.4964 41.9231 15.4363 40.9078L13.9686 39.5491ZM11.3606 41.0242C10.2962 41.3006 9.05168 41.3085 7.60253 41.0002L7.18643 42.9565C8.86725 43.314 10.4344 43.331 11.8632 42.96L11.3606 41.0242ZM7.60253 41.0002C5.25819 40.5016 3.61738 39.5522 2.55859 38.2287L0.996843 39.4781C2.4191 41.2559 4.52279 42.3899 7.18643 42.9565L7.60253 41.0002ZM2.56287 38.2341C1.56813 36.973 1.1897 35.2643 1.59985 32.9578L-0.369265 32.6076C-0.848528 35.3029 -0.452008 37.6413 0.992572 39.4727L2.56287 38.2341ZM0.40724 33.7608L5.603 34.866L6.0191 32.9098L0.823341 31.8046L0.40724 33.7608ZM4.82846 33.7021C4.62025 34.8034 4.72969 35.8498 5.26767 36.7559L6.98736 35.7347C6.75455 35.3427 6.65301 34.8175 6.79365 34.0736L4.82846 33.7021ZM5.27783 36.7726C5.85377 37.7007 6.80861 38.2304 7.94401 38.4719L8.36011 36.5157C7.57579 36.3489 7.18094 36.0463 6.9772 35.718L5.27783 36.7726ZM7.94401 38.4719C8.9455 38.685 9.91946 38.5911 10.7404 38.0306L9.61264 36.3788C9.36189 36.55 8.98621 36.6489 8.36011 36.5157L7.94401 38.4719ZM10.7395 38.0311C11.548 37.4804 12.0342 36.6612 12.2427 35.6812L10.2864 35.2651C10.1665 35.8292 9.92737 36.1644 9.61349 36.3782L10.7395 38.0311ZM12.2427 35.6812C12.5029 34.4577 12.3222 33.2956 11.4745 32.414L10.0328 33.8002C10.2924 34.0701 10.4523 34.4855 10.2864 35.2651L12.2427 35.6812ZM11.4998 32.4414C10.7553 31.6068 9.53203 31.1051 8.07209 30.7946L7.65599 32.7508C8.99216 33.035 9.69533 33.423 10.0075 33.7728L11.4998 32.4414ZM8.07209 30.7946L7.07049 30.5816L6.65439 32.5378L7.65599 32.7508L8.07209 30.7946ZM7.84056 31.7677L8.76597 27.4171L6.80973 27.001L5.88433 31.3516L7.84056 31.7677ZM7.5798 28.1871L8.58139 28.4002L8.9975 26.4439L7.9959 26.2309L7.5798 28.1871ZM8.58139 28.4002C9.74192 28.647 10.8182 28.6758 11.7571 28.3935L11.1813 26.4782C10.6756 26.6303 9.96535 26.6498 8.9975 26.4439L8.58139 28.4002ZM11.7674 28.3904C12.9427 28.0232 13.6134 27.0835 13.8683 25.8851L11.9121 25.469C11.7676 26.1486 11.4909 26.3814 11.171 26.4814L11.7674 28.3904ZM13.8683 25.8851C14.0675 24.9488 13.9855 24.0316 13.4758 23.2466L11.7983 24.3356C11.9458 24.5628 12.0325 24.9029 11.9121 25.469L13.8683 25.8851ZM13.4758 23.2466C12.9702 22.4677 12.1812 22.0174 11.2568 21.8208L10.8407 23.777C11.3769 23.8911 11.6468 24.1023 11.7983 24.3356L13.4758 23.2466ZM11.2568 21.8208C10.2586 21.6085 9.28356 21.7262 8.48992 22.356L9.7331 23.9227C9.93656 23.7612 10.253 23.652 10.8407 23.777L11.2568 21.8208ZM8.46946 22.3727C7.81994 22.9166 7.37913 23.6412 7.11869 24.4904L9.03078 25.0768C9.19735 24.5337 9.44772 24.1621 9.75356 23.906L8.46946 22.3727ZM8.28278 23.8055L3.05572 22.6937L2.63962 24.6499L7.86668 25.7617L8.28278 23.8055Z" fill="white" mask="url(#path-5-outside-2_1226_152)"/>
<mask id="path-7-outside-3_1226_152" maskUnits="userSpaceOnUse" x="13.1428" y="-5.48558" width="31.3035" height="31.9819" fill="black">
<rect fill="white" x="13.1428" y="-5.48558" width="31.3035" height="31.9819"/>
<path d="M31.7868 5.08495C31.1878 4.48243 30.4658 4.10492 29.6208 3.95243C28.7903 3.77346 27.8837 3.82798 26.901 4.11599C25.2019 4.614 24.0055 5.576 23.3119 7.00198C22.6123 8.40748 22.5355 10.0417 23.0815 11.9047C23.6635 13.8905 24.6518 15.2904 26.0463 16.1043C27.4554 16.8918 29.1016 17.0095 30.9851 16.4575C32.2748 16.0795 33.2638 15.434 33.9521 14.5208C34.6609 13.6017 35.04 12.468 35.0894 11.1197L28.4257 13.0727L27.2917 9.20348L38.7152 5.85539L40.1462 10.738C40.1412 12.1622 39.8329 13.5753 39.2212 14.9773C38.63 16.3733 37.7198 17.6293 36.4908 18.7454C35.2617 19.8614 33.7464 20.6835 31.9449 21.2115C29.8158 21.8355 27.7769 21.9329 25.8281 21.5037C23.8939 21.0479 22.2129 20.129 20.7852 18.7467C19.3779 17.3585 18.3623 15.5998 17.7382 13.4707C17.1142 11.3416 17.0198 9.31294 17.4551 7.38469C17.9048 5.42997 18.8238 3.74897 20.212 2.34171C21.5942 0.91398 23.3499 -0.111895 25.479 -0.735911C28.0585 -1.49193 30.4116 -1.50355 32.5382 -0.770761C34.6853 -0.0439717 36.3694 1.34092 37.5907 3.3839L31.7868 5.08495Z"/>
</mask>
<path d="M31.7868 5.08495C31.1878 4.48243 30.4658 4.10492 29.6208 3.95243C28.7903 3.77346 27.8837 3.82798 26.901 4.11599C25.2019 4.614 24.0055 5.576 23.3119 7.00198C22.6123 8.40748 22.5355 10.0417 23.0815 11.9047C23.6635 13.8905 24.6518 15.2904 26.0463 16.1043C27.4554 16.8918 29.1016 17.0095 30.9851 16.4575C32.2748 16.0795 33.2638 15.434 33.9521 14.5208C34.6609 13.6017 35.04 12.468 35.0894 11.1197L28.4257 13.0727L27.2917 9.20348L38.7152 5.85539L40.1462 10.738C40.1412 12.1622 39.8329 13.5753 39.2212 14.9773C38.63 16.3733 37.7198 17.6293 36.4908 18.7454C35.2617 19.8614 33.7464 20.6835 31.9449 21.2115C29.8158 21.8355 27.7769 21.9329 25.8281 21.5037C23.8939 21.0479 22.2129 20.129 20.7852 18.7467C19.3779 17.3585 18.3623 15.5998 17.7382 13.4707C17.1142 11.3416 17.0198 9.31294 17.4551 7.38469C17.9048 5.42997 18.8238 3.74897 20.212 2.34171C21.5942 0.91398 23.3499 -0.111895 25.479 -0.735911C28.0585 -1.49193 30.4116 -1.50355 32.5382 -0.770761C34.6853 -0.0439717 36.3694 1.34092 37.5907 3.3839L31.7868 5.08495Z" fill="#057DE5"/>
<path d="M31.7868 5.08495L31.0776 5.78997L31.4971 6.21193L32.0681 6.04458L31.7868 5.08495ZM29.6208 3.95243L29.4102 4.92999L29.4267 4.93354L29.4432 4.93653L29.6208 3.95243ZM23.3119 7.00198L24.2071 7.4476L24.2111 7.43938L23.3119 7.00198ZM26.0463 16.1043L25.5423 16.968L25.5503 16.9727L25.5585 16.9772L26.0463 16.1043ZM33.9521 14.5208L33.1602 13.9101L33.1536 13.9189L33.9521 14.5208ZM35.0894 11.1197L36.0888 11.1563L36.1396 9.76981L34.8082 10.16L35.0894 11.1197ZM28.4257 13.0727L27.4661 13.354L27.7474 14.3136L28.707 14.0324L28.4257 13.0727ZM27.2917 9.20348L27.0105 8.24385L26.0508 8.52511L26.3321 9.48474L27.2917 9.20348ZM38.7152 5.85539L39.6748 5.57414L39.3935 4.6145L38.4339 4.89576L38.7152 5.85539ZM40.1462 10.738L41.1462 10.7415L41.1467 10.5962L41.1058 10.4567L40.1462 10.738ZM39.2212 14.9773L38.3046 14.5774L38.3004 14.5873L39.2212 14.9773ZM36.4908 18.7454L35.8185 18.005L35.8185 18.005L36.4908 18.7454ZM25.8281 21.5037L25.5988 22.477L25.6059 22.4787L25.613 22.4802L25.8281 21.5037ZM20.7852 18.7467L20.0829 19.4587L20.0896 19.4652L20.7852 18.7467ZM17.4551 7.38469L16.4805 7.16048L16.4796 7.16451L17.4551 7.38469ZM20.212 2.34171L20.9239 3.04402L20.9305 3.03728L20.212 2.34171ZM32.5382 -0.770761L32.2124 0.174699L32.2175 0.176444L32.5382 -0.770761ZM37.5907 3.3839L37.8719 4.34354L39.1121 3.98006L38.449 2.87082L37.5907 3.3839ZM32.496 4.37993C31.7509 3.63048 30.8427 3.15678 29.7984 2.96832L29.4432 4.93653C30.0889 5.05306 30.6247 5.33438 31.0776 5.78997L32.496 4.37993ZM29.8315 2.97486C28.8077 2.75427 27.7297 2.83105 26.6198 3.15636L27.1823 5.07562C28.0377 4.82491 28.7729 4.79265 29.4102 4.92999L29.8315 2.97486ZM26.6198 3.15636C24.6853 3.72335 23.2445 4.85416 22.4126 6.56457L24.2111 7.43938C24.7664 6.29784 25.7184 5.50466 27.1823 5.07562L26.6198 3.15636ZM22.4166 6.55637C21.5797 8.23768 21.5225 10.1411 22.1219 12.1859L24.0411 11.6234C23.5484 9.9423 23.6448 8.57728 24.2071 7.44758L22.4166 6.55637ZM22.1219 12.1859C22.7547 14.3452 23.87 15.9919 25.5423 16.968L26.5504 15.2407C25.4336 14.5888 24.5723 13.4357 24.0411 11.6234L22.1219 12.1859ZM25.5585 16.9772C27.2509 17.9231 29.1847 18.0273 31.2663 17.4172L30.7038 15.4979C29.0185 15.9918 27.6598 15.8605 26.5342 15.2314L25.5585 16.9772ZM31.2663 17.4172C32.725 16.9896 33.9112 16.2364 34.7507 15.1228L33.1536 13.9189C32.6164 14.6315 31.8246 15.1694 30.7038 15.4979L31.2663 17.4172ZM34.744 15.1315C35.5999 14.0217 36.033 12.678 36.0888 11.1563L34.0901 11.083C34.047 12.258 33.7219 13.1818 33.1602 13.9102L34.744 15.1315ZM34.8082 10.16L28.1445 12.1131L28.707 14.0324L35.3707 12.0793L34.8082 10.16ZM29.3854 12.7915L28.2513 8.92223L26.3321 9.48474L27.4661 13.354L29.3854 12.7915ZM27.573 10.1631L38.9964 6.81503L38.4339 4.89576L27.0105 8.24385L27.573 10.1631ZM37.7555 6.13665L39.1866 11.0193L41.1058 10.4567L39.6748 5.57414L37.7555 6.13665ZM39.1462 10.7345C39.1418 12.0124 38.8659 13.2911 38.3046 14.5774L40.1378 15.3772C40.7999 13.8595 41.1407 12.312 41.1462 10.7415L39.1462 10.7345ZM38.3004 14.5873C37.7708 15.8376 36.9506 16.977 35.8185 18.005L37.163 19.4857C38.489 18.2816 39.4891 16.9089 40.142 15.3673L38.3004 14.5873ZM35.8185 18.005C34.7154 19.0068 33.339 19.7608 31.6636 20.2518L32.2261 22.1711C34.1538 21.6061 35.8081 20.7161 37.163 19.4857L35.8185 18.005ZM31.6636 20.2518C29.6775 20.834 27.81 20.9162 26.0432 20.5271L25.613 22.4802C27.7438 22.9496 29.9541 22.837 32.2261 22.1711L31.6636 20.2518ZM26.0575 20.5303C24.2988 20.116 22.7789 19.2851 21.4807 18.0283L20.0896 19.4652C21.6469 20.9729 23.489 21.9799 25.5988 22.477L26.0575 20.5303ZM21.4874 18.0348C20.2154 16.78 19.2801 15.1758 18.6979 13.1895L16.7786 13.752C17.4445 16.0239 18.5404 17.937 20.0829 19.4586L21.4874 18.0348ZM18.6979 13.1895C18.1157 11.2031 18.0371 9.34785 18.4305 7.60487L16.4796 7.16451C16.0026 9.27803 16.1128 11.4801 16.7786 13.752L18.6979 13.1895ZM18.4296 7.60889C18.8384 5.83199 19.6678 4.31728 20.9239 3.04399L19.5001 1.63943C17.9797 3.18067 16.9711 5.02794 16.4805 7.16049L18.4296 7.60889ZM20.9305 3.03728C22.1787 1.74793 23.7775 0.804838 25.7603 0.223721L25.1977 -1.69554C22.9223 -1.02863 21.0097 0.080025 19.4935 1.64614L20.9305 3.03728ZM25.7603 0.223721C28.1805 -0.485629 30.3175 -0.478242 32.2124 0.174685L32.8639 -1.71621C30.5056 -2.52885 27.9365 -2.49823 25.1977 -1.69554L25.7603 0.223721ZM32.2175 0.176444C34.1275 0.822983 35.6264 2.04692 36.7323 3.89699L38.449 2.87082C37.1124 0.634914 35.243 -0.910926 32.8588 -1.71797L32.2175 0.176444ZM37.3094 2.42427L31.5055 4.12532L32.0681 6.04458L37.8719 4.34354L37.3094 2.42427Z" fill="white" mask="url(#path-7-outside-3_1226_152)"/>
<mask id="path-9-outside-4_1226_152" maskUnits="userSpaceOnUse" x="14.511" y="16.2837" width="28.4537" height="29.2372" fill="black">
<rect fill="white" x="14.511" y="16.2837" width="28.4537" height="29.2372"/>
<path d="M29.422 42.7695L23.9716 31.5564L22.0179 41.2821L16.6531 40.2044L21.0774 18.1804L26.4422 19.2581L24.5011 28.9211L33.7836 20.7329L40.0896 21.9997L29.388 31.0778L35.979 44.0867L29.422 42.7695Z"/>
</mask>
<path d="M29.422 42.7695L23.9716 31.5564L22.0179 41.2821L16.6531 40.2044L21.0774 18.1804L26.4422 19.2581L24.5011 28.9211L33.7836 20.7329L40.0896 21.9997L29.388 31.0778L35.979 44.0867L29.422 42.7695Z" fill="#057DE5"/>
<path d="M29.422 42.7695L28.5226 43.2067L28.7392 43.6523L29.225 43.7499L29.422 42.7695ZM23.9716 31.5564L24.871 31.1193L23.5751 28.4531L22.9912 31.3595L23.9716 31.5564ZM22.0179 41.2821L21.8209 42.2626L22.8013 42.4595L22.9983 41.4791L22.0179 41.2821ZM16.6531 40.2044L15.6726 40.0075L15.4757 40.9879L16.4561 41.1848L16.6531 40.2044ZM21.0774 18.1804L21.2744 17.2L20.2939 17.0031L20.097 17.9835L21.0774 18.1804ZM26.4422 19.2581L27.4226 19.4551L27.6196 18.4747L26.6392 18.2777L26.4422 19.2581ZM24.5011 28.9211L23.5206 28.7241L22.9358 31.6352L25.1626 29.671L24.5011 28.9211ZM33.7836 20.7329L33.9805 19.7525L33.4941 19.6548L33.122 19.983L33.7836 20.7329ZM40.0896 21.9997L40.7365 22.7623L42.3116 21.4261L40.2865 21.0193L40.0896 21.9997ZM29.388 31.0778L28.7411 30.3153L28.1393 30.8258L28.496 31.5298L29.388 31.0778ZM35.979 44.0867L35.782 45.0672L37.8023 45.473L36.871 43.6348L35.979 44.0867ZM30.3213 42.3324L24.871 31.1193L23.0723 31.9936L28.5226 43.2067L30.3213 42.3324ZM22.9912 31.3595L21.0375 41.0852L22.9983 41.4791L24.9521 31.7534L22.9912 31.3595ZM22.2148 40.3017L16.85 39.224L16.4561 41.1848L21.8209 42.2626L22.2148 40.3017ZM17.6335 40.4014L22.0578 18.3774L20.097 17.9835L15.6726 40.0075L17.6335 40.4014ZM20.8804 19.1608L26.2453 20.2386L26.6392 18.2777L21.2744 17.2L20.8804 19.1608ZM25.4618 19.0612L23.5206 28.7241L25.4815 29.118L27.4226 19.4551L25.4618 19.0612ZM25.1626 29.671L34.4451 21.4828L33.122 19.983L23.8395 28.1712L25.1626 29.671ZM33.5866 21.7133L39.8926 22.9801L40.2865 21.0193L33.9805 19.7525L33.5866 21.7133ZM39.4427 21.2371L28.7411 30.3153L30.0349 31.8404L40.7365 22.7623L39.4427 21.2371ZM28.496 31.5298L35.0869 44.5387L36.871 43.6348L30.28 30.6259L28.496 31.5298ZM36.1759 43.1063L29.6189 41.7891L29.225 43.7499L35.782 45.0672L36.1759 43.1063Z" fill="white" mask="url(#path-9-outside-4_1226_152)"/>
</g>
<rect x="0.628052" y="0.5" width="39" height="39" stroke="white"/>
<path d="M70.105 26.14C69.0784 26.14 68.1584 25.9733 67.345 25.64C66.5317 25.3067 65.8784 24.8133 65.385 24.16C64.905 23.5067 64.6517 22.72 64.625 21.8H68.265C68.3184 22.32 68.4984 22.72 68.805 23C69.1117 23.2667 69.5117 23.4 70.005 23.4C70.5117 23.4 70.9117 23.2867 71.205 23.06C71.4984 22.82 71.645 22.4933 71.645 22.08C71.645 21.7333 71.525 21.4467 71.285 21.22C71.0584 20.9933 70.7717 20.8067 70.425 20.66C70.0917 20.5133 69.6117 20.3467 68.985 20.16C68.0784 19.88 67.3384 19.6 66.765 19.32C66.1917 19.04 65.6984 18.6267 65.285 18.08C64.8717 17.5333 64.665 16.82 64.665 15.94C64.665 14.6333 65.1384 13.6133 66.085 12.88C67.0317 12.1333 68.265 11.76 69.785 11.76C71.3317 11.76 72.5784 12.1333 73.525 12.88C74.4717 13.6133 74.9784 14.64 75.045 15.96H71.345C71.3184 15.5067 71.1517 15.1533 70.845 14.9C70.5384 14.6333 70.145 14.5 69.665 14.5C69.2517 14.5 68.9184 14.6133 68.665 14.84C68.4117 15.0533 68.285 15.3667 68.285 15.78C68.285 16.2333 68.4984 16.5867 68.925 16.84C69.3517 17.0933 70.0184 17.3667 70.925 17.66C71.8317 17.9667 72.565 18.26 73.125 18.54C73.6984 18.82 74.1917 19.2267 74.605 19.76C75.0184 20.2933 75.225 20.98 75.225 21.82C75.225 22.62 75.0184 23.3467 74.605 24C74.205 24.6533 73.6184 25.1733 72.845 25.56C72.0717 25.9467 71.1584 26.14 70.105 26.14ZM93.3497 14.84L90.3297 26H86.5497L84.7897 18.76L82.9697 26H79.2097L76.1697 14.84H79.5897L81.1697 22.82L83.0497 14.84H86.6697L88.5697 22.78L90.1297 14.84H93.3497ZM94.3139 18.5C94.3139 16.2067 94.7539 14.4 95.6339 13.08C96.5273 11.76 97.9606 11.1 99.9339 11.1C101.907 11.1 103.334 11.76 104.214 13.08C105.107 14.4 105.554 16.2067 105.554 18.5C105.554 20.82 105.107 22.64 104.214 23.96C103.334 25.28 101.907 25.94 99.9339 25.94C97.9606 25.94 96.5273 25.28 95.6339 23.96C94.7539 22.64 94.3139 20.82 94.3139 18.5ZM102.194 18.5C102.194 17.1533 102.047 16.12 101.754 15.4C101.461 14.6667 100.854 14.3 99.9339 14.3C99.0139 14.3 98.4073 14.6667 98.1139 15.4C97.8206 16.12 97.6739 17.1533 97.6739 18.5C97.6739 19.4067 97.7273 20.16 97.8339 20.76C97.9406 21.3467 98.1539 21.8267 98.4739 22.2C98.8073 22.56 99.2939 22.74 99.9339 22.74C100.574 22.74 101.054 22.56 101.374 22.2C101.707 21.8267 101.927 21.3467 102.034 20.76C102.141 20.16 102.194 19.4067 102.194 18.5ZM107.361 18.5C107.361 16.2067 107.801 14.4 108.681 13.08C109.574 11.76 111.007 11.1 112.981 11.1C114.954 11.1 116.381 11.76 117.261 13.08C118.154 14.4 118.601 16.2067 118.601 18.5C118.601 20.82 118.154 22.64 117.261 23.96C116.381 25.28 114.954 25.94 112.981 25.94C111.007 25.94 109.574 25.28 108.681 23.96C107.801 22.64 107.361 20.82 107.361 18.5ZM115.241 18.5C115.241 17.1533 115.094 16.12 114.801 15.4C114.507 14.6667 113.901 14.3 112.981 14.3C112.061 14.3 111.454 14.6667 111.161 15.4C110.867 16.12 110.721 17.1533 110.721 18.5C110.721 19.4067 110.774 20.16 110.881 20.76C110.987 21.3467 111.201 21.8267 111.521 22.2C111.854 22.56 112.341 22.74 112.981 22.74C113.621 22.74 114.101 22.56 114.421 22.2C114.754 21.8267 114.974 21.3467 115.081 20.76C115.187 20.16 115.241 19.4067 115.241 18.5ZM124.168 16.42C124.501 15.9 124.961 15.48 125.548 15.16C126.134 14.84 126.821 14.68 127.608 14.68C128.528 14.68 129.361 14.9133 130.108 15.38C130.854 15.8467 131.441 16.5133 131.868 17.38C132.308 18.2467 132.528 19.2533 132.528 20.4C132.528 21.5467 132.308 22.56 131.868 23.44C131.441 24.3067 130.854 24.98 130.108 25.46C129.361 25.9267 128.528 26.16 127.608 26.16C126.834 26.16 126.148 26 125.548 25.68C124.961 25.36 124.501 24.9467 124.168 24.44V31.32H120.748V14.84H124.168V16.42ZM129.048 20.4C129.048 19.5467 128.808 18.88 128.328 18.4C127.861 17.9067 127.281 17.66 126.588 17.66C125.908 17.66 125.328 17.9067 124.848 18.4C124.381 18.8933 124.148 19.5667 124.148 20.42C124.148 21.2733 124.381 21.9467 124.848 22.44C125.328 22.9333 125.908 23.18 126.588 23.18C127.268 23.18 127.848 22.9333 128.328 22.44C128.808 21.9333 129.048 21.2533 129.048 20.4ZM143.642 16.4C143.389 15.9333 143.022 15.58 142.542 15.34C142.075 15.0867 141.522 14.96 140.882 14.96C139.775 14.96 138.889 15.3267 138.222 16.06C137.555 16.78 137.222 17.7467 137.222 18.96C137.222 20.2533 137.569 21.2667 138.262 22C138.969 22.72 139.935 23.08 141.162 23.08C142.002 23.08 142.709 22.8667 143.282 22.44C143.869 22.0133 144.295 21.4 144.562 20.6H140.222V18.08H147.662V21.26C147.409 22.1133 146.975 22.9067 146.362 23.64C145.762 24.3733 144.995 24.9667 144.062 25.42C143.129 25.8733 142.075 26.1 140.902 26.1C139.515 26.1 138.275 25.8 137.182 25.2C136.102 24.5867 135.255 23.74 134.642 22.66C134.042 21.58 133.742 20.3467 133.742 18.96C133.742 17.5733 134.042 16.34 134.642 15.26C135.255 14.1667 136.102 13.32 137.182 12.72C138.262 12.1067 139.495 11.8 140.882 11.8C142.562 11.8 143.975 12.2067 145.122 13.02C146.282 13.8333 147.049 14.96 147.422 16.4H143.642ZM160.076 20.24C160.076 20.56 160.056 20.8933 160.016 21.24H152.276C152.33 21.9333 152.55 22.4667 152.936 22.84C153.336 23.2 153.823 23.38 154.396 23.38C155.25 23.38 155.843 23.02 156.176 22.3H159.816C159.63 23.0333 159.29 23.6933 158.796 24.28C158.316 24.8667 157.71 25.3267 156.976 25.66C156.243 25.9933 155.423 26.16 154.516 26.16C153.423 26.16 152.45 25.9267 151.596 25.46C150.743 24.9933 150.076 24.3267 149.596 23.46C149.116 22.5933 148.876 21.58 148.876 20.42C148.876 19.26 149.11 18.2467 149.576 17.38C150.056 16.5133 150.723 15.8467 151.576 15.38C152.43 14.9133 153.41 14.68 154.516 14.68C155.596 14.68 156.556 14.9067 157.396 15.36C158.236 15.8133 158.89 16.46 159.356 17.3C159.836 18.14 160.076 19.12 160.076 20.24ZM156.576 19.34C156.576 18.7533 156.376 18.2867 155.976 17.94C155.576 17.5933 155.076 17.42 154.476 17.42C153.903 17.42 153.416 17.5867 153.016 17.92C152.63 18.2533 152.39 18.7267 152.296 19.34H156.576ZM168.681 14.72C169.987 14.72 171.027 15.1467 171.801 16C172.587 16.84 172.981 18 172.981 19.48V26H169.581V19.94C169.581 19.1933 169.387 18.6133 169.001 18.2C168.614 17.7867 168.094 17.58 167.441 17.58C166.787 17.58 166.267 17.7867 165.881 18.2C165.494 18.6133 165.301 19.1933 165.301 19.94V26H161.881V14.84H165.301V16.32C165.647 15.8267 166.114 15.44 166.701 15.16C167.287 14.8667 167.947 14.72 168.681 14.72ZM185.877 20.24C185.877 20.56 185.857 20.8933 185.817 21.24H178.077C178.13 21.9333 178.35 22.4667 178.737 22.84C179.137 23.2 179.624 23.38 180.197 23.38C181.05 23.38 181.644 23.02 181.977 22.3H185.617C185.43 23.0333 185.09 23.6933 184.597 24.28C184.117 24.8667 183.51 25.3267 182.777 25.66C182.044 25.9933 181.224 26.16 180.317 26.16C179.224 26.16 178.25 25.9267 177.397 25.46C176.544 24.9933 175.877 24.3267 175.397 23.46C174.917 22.5933 174.677 21.58 174.677 20.42C174.677 19.26 174.91 18.2467 175.377 17.38C175.857 16.5133 176.524 15.8467 177.377 15.38C178.23 14.9133 179.21 14.68 180.317 14.68C181.397 14.68 182.357 14.9067 183.197 15.36C184.037 15.8133 184.69 16.46 185.157 17.3C185.637 18.14 185.877 19.12 185.877 20.24ZM182.377 19.34C182.377 18.7533 182.177 18.2867 181.777 17.94C181.377 17.5933 180.877 17.42 180.277 17.42C179.704 17.42 179.217 17.5867 178.817 17.92C178.43 18.2533 178.19 18.7267 178.097 19.34H182.377ZM191.101 16.7C191.501 16.0867 192.001 15.6067 192.601 15.26C193.201 14.9 193.868 14.72 194.601 14.72V18.34H193.661C192.808 18.34 192.168 18.5267 191.741 18.9C191.315 19.26 191.101 19.9 191.101 20.82V26H187.681V14.84H191.101V16.7ZM195.556 20.4C195.556 19.2533 195.769 18.2467 196.196 17.38C196.636 16.5133 197.229 15.8467 197.976 15.38C198.723 14.9133 199.556 14.68 200.476 14.68C201.263 14.68 201.949 14.84 202.536 15.16C203.136 15.48 203.596 15.9 203.916 16.42V14.84H207.336V26H203.916V24.42C203.583 24.94 203.116 25.36 202.516 25.68C201.929 26 201.243 26.16 200.456 26.16C199.549 26.16 198.723 25.9267 197.976 25.46C197.229 24.98 196.636 24.3067 196.196 23.44C195.769 22.56 195.556 21.5467 195.556 20.4ZM203.916 20.42C203.916 19.5667 203.676 18.8933 203.196 18.4C202.729 17.9067 202.156 17.66 201.476 17.66C200.796 17.66 200.216 17.9067 199.736 18.4C199.269 18.88 199.036 19.5467 199.036 20.4C199.036 21.2533 199.269 21.9333 199.736 22.44C200.216 22.9333 200.796 23.18 201.476 23.18C202.156 23.18 202.729 22.9333 203.196 22.44C203.676 21.9467 203.916 21.2733 203.916 20.42ZM216.03 23.1V26H214.29C213.05 26 212.084 25.7 211.39 25.1C210.697 24.4867 210.35 23.4933 210.35 22.12V17.68H208.99V14.84H210.35V12.12H213.77V14.84H216.01V17.68H213.77V22.16C213.77 22.4933 213.85 22.7333 214.01 22.88C214.17 23.0267 214.437 23.1 214.81 23.1H216.03ZM223.015 26.16C221.922 26.16 220.935 25.9267 220.055 25.46C219.189 24.9933 218.502 24.3267 217.995 23.46C217.502 22.5933 217.255 21.58 217.255 20.42C217.255 19.2733 217.509 18.2667 218.015 17.4C218.522 16.52 219.215 15.8467 220.095 15.38C220.975 14.9133 221.962 14.68 223.055 14.68C224.149 14.68 225.135 14.9133 226.015 15.38C226.895 15.8467 227.589 16.52 228.095 17.4C228.602 18.2667 228.855 19.2733 228.855 20.42C228.855 21.5667 228.595 22.58 228.075 23.46C227.569 24.3267 226.869 24.9933 225.975 25.46C225.095 25.9267 224.109 26.16 223.015 26.16ZM223.015 23.2C223.669 23.2 224.222 22.96 224.675 22.48C225.142 22 225.375 21.3133 225.375 20.42C225.375 19.5267 225.149 18.84 224.695 18.36C224.255 17.88 223.709 17.64 223.055 17.64C222.389 17.64 221.835 17.88 221.395 18.36C220.955 18.8267 220.735 19.5133 220.735 20.42C220.735 21.3133 220.949 22 221.375 22.48C221.815 22.96 222.362 23.2 223.015 23.2ZM234.09 16.7C234.49 16.0867 234.99 15.6067 235.59 15.26C236.19 14.9 236.856 14.72 237.59 14.72V18.34H236.65C235.796 18.34 235.156 18.5267 234.73 18.9C234.303 19.26 234.09 19.9 234.09 20.82V26H230.67V14.84H234.09V16.7Z" fill="white"/>
<path d="M239.004 15.52C239.058 14.0933 239.524 12.9933 240.404 12.22C241.284 11.4467 242.478 11.06 243.984 11.06C244.984 11.06 245.838 11.2333 246.544 11.58C247.264 11.9267 247.804 12.4 248.164 13C248.538 13.6 248.724 14.2733 248.724 15.02C248.724 15.9 248.504 16.62 248.064 17.18C247.624 17.7267 247.111 18.1 246.524 18.3V18.38C247.284 18.6333 247.884 19.0533 248.324 19.64C248.764 20.2267 248.984 20.98 248.984 21.9C248.984 22.7267 248.791 23.46 248.404 24.1C248.031 24.7267 247.478 25.22 246.744 25.58C246.024 25.94 245.164 26.12 244.164 26.12C242.564 26.12 241.284 25.7267 240.324 24.94C239.378 24.1533 238.878 22.9667 238.824 21.38H242.144C242.158 21.9667 242.324 22.4333 242.644 22.78C242.964 23.1133 243.431 23.28 244.044 23.28C244.564 23.28 244.964 23.1333 245.244 22.84C245.538 22.5333 245.684 22.1333 245.684 21.64C245.684 21 245.478 20.54 245.064 20.26C244.664 19.9667 244.018 19.82 243.124 19.82H242.484V17.04H243.124C243.804 17.04 244.351 16.9267 244.764 16.7C245.191 16.46 245.404 16.04 245.404 15.44C245.404 14.96 245.271 14.5867 245.004 14.32C244.738 14.0533 244.371 13.92 243.904 13.92C243.398 13.92 243.018 14.0733 242.764 14.38C242.524 14.6867 242.384 15.0667 242.344 15.52H239.004ZM259.474 26L254.754 19.8V26H251.334V11.96H254.754V18.12L259.434 11.96H263.454L258.014 18.84L263.654 26H259.474Z" fill="#4F4F4F"/>
<defs>
<clipPath id="clip0_1226_152">
<rect x="0.128052" width="40" height="40" fill="white"/>
</clipPath>
</defs>
</svg>
