<svg width="41" height="40" viewBox="0 0 41 40" fill="none" xmlns="http://www.w3.org/2000/svg">
<g clip-path="url(#clip0_1217_169)">
<rect x="0.128052" width="40" height="40" fill="#057DE5"/>
<mask id="path-3-outside-1_1217_169" maskUnits="userSpaceOnUse" x="-1.04088" y="-1.58883" width="21.0756" height="26.818" fill="black">
<rect fill="white" x="-1.04088" y="-1.58883" width="21.0756" height="26.818"/>
<path d="M10.0808 23.0295C8.43955 23.0986 6.95764 22.8941 5.63503 22.4159C4.31242 21.9378 3.23482 21.1931 2.40223 20.1819C1.59096 19.1698 1.13306 17.9293 1.02853 16.4603L6.84738 16.2155C6.96762 17.0431 7.28228 17.6705 7.79135 18.0974C8.29952 18.5031 8.94793 18.6893 9.73656 18.6561C10.5465 18.622 11.1783 18.414 11.632 18.0319C12.0848 17.6285 12.2972 17.0964 12.2694 16.4357C12.2461 15.8815 12.035 15.4313 11.6361 15.0851C11.2585 14.738 10.7877 14.4589 10.2236 14.2477C9.6809 14.0357 8.90237 13.8016 7.88803 13.5453C6.41981 13.1587 5.21801 12.7609 4.28265 12.3519C3.34729 11.9428 2.53085 11.3153 1.83332 10.4692C1.1358 9.62312 0.757431 8.4967 0.698226 7.08995C0.610316 5.00113 1.29836 3.33873 2.76235 2.10274C4.22544 0.845443 6.17191 0.165662 8.60176 0.063399C11.0742 -0.0406576 13.0923 0.472274 14.6558 1.60219C16.2185 2.7108 17.0975 4.31793 17.2929 6.42357L11.3781 6.6725C11.305 5.9496 11.0148 5.39598 10.5075 5.01164C9.99934 4.60598 9.36159 4.4193 8.59427 4.45159C7.93352 4.4794 7.40829 4.683 7.01856 5.06239C6.62794 5.42047 6.44653 5.92988 6.47434 6.59063C6.50484 7.31532 6.86964 7.8658 7.56875 8.24207C8.26786 8.61834 9.35197 9.01043 10.8211 9.41835C12.2911 9.84759 13.4831 10.2672 14.3972 10.6771C15.3325 11.0861 16.1485 11.703 16.8452 12.5278C17.5418 13.3526 17.9184 14.4364 17.9749 15.7792C18.0287 17.058 17.7472 18.2336 17.1304 19.3058C16.5349 20.3771 15.6321 21.2479 14.4219 21.918C13.2116 22.5881 11.7646 22.9587 10.0808 23.0295Z"/>
</mask>
<path d="M10.0808 23.0295C8.43955 23.0986 6.95764 22.8941 5.63503 22.4159C4.31242 21.9378 3.23482 21.1931 2.40223 20.1819C1.59096 19.1698 1.13306 17.9293 1.02853 16.4603L6.84738 16.2155C6.96762 17.0431 7.28228 17.6705 7.79135 18.0974C8.29952 18.5031 8.94793 18.6893 9.73656 18.6561C10.5465 18.622 11.1783 18.414 11.632 18.0319C12.0848 17.6285 12.2972 17.0964 12.2694 16.4357C12.2461 15.8815 12.035 15.4313 11.6361 15.0851C11.2585 14.738 10.7877 14.4589 10.2236 14.2477C9.6809 14.0357 8.90237 13.8016 7.88803 13.5453C6.41981 13.1587 5.21801 12.7609 4.28265 12.3519C3.34729 11.9428 2.53085 11.3153 1.83332 10.4692C1.1358 9.62312 0.757431 8.4967 0.698226 7.08995C0.610316 5.00113 1.29836 3.33873 2.76235 2.10274C4.22544 0.845443 6.17191 0.165662 8.60176 0.063399C11.0742 -0.0406576 13.0923 0.472274 14.6558 1.60219C16.2185 2.7108 17.0975 4.31793 17.2929 6.42357L11.3781 6.6725C11.305 5.9496 11.0148 5.39598 10.5075 5.01164C9.99934 4.60598 9.36159 4.4193 8.59427 4.45159C7.93352 4.4794 7.40829 4.683 7.01856 5.06239C6.62794 5.42047 6.44653 5.92988 6.47434 6.59063C6.50484 7.31532 6.86964 7.8658 7.56875 8.24207C8.26786 8.61834 9.35197 9.01043 10.8211 9.41835C12.2911 9.84759 13.4831 10.2672 14.3972 10.6771C15.3325 11.0861 16.1485 11.703 16.8452 12.5278C17.5418 13.3526 17.9184 14.4364 17.9749 15.7792C18.0287 17.058 17.7472 18.2336 17.1304 19.3058C16.5349 20.3771 15.6321 21.2479 14.4219 21.918C13.2116 22.5881 11.7646 22.9587 10.0808 23.0295Z" fill="#057DE5"/>
<path d="M5.63503 22.4159L5.29505 23.3563L5.29505 23.3563L5.63503 22.4159ZM2.40223 20.1819L1.62189 20.8074L1.63024 20.8175L2.40223 20.1819ZM1.02853 16.4603L0.986483 15.4612L-0.0420119 15.5045L0.0310541 16.5313L1.02853 16.4603ZM6.84738 16.2155L7.83699 16.0717L7.70722 15.1784L6.80533 15.2163L6.84738 16.2155ZM7.79135 18.0974L7.14873 18.8636L7.15801 18.8714L7.16748 18.879L7.79135 18.0974ZM11.632 18.0319L12.2762 18.7967L12.2868 18.7878L12.2972 18.7785L11.632 18.0319ZM11.6361 15.0851L10.9593 15.8213L10.9699 15.831L10.9806 15.8403L11.6361 15.0851ZM10.2236 14.2477L9.85973 15.1792L9.86638 15.1818L9.87306 15.1843L10.2236 14.2477ZM7.88803 13.5453L7.63338 14.5124L7.6431 14.5149L7.88803 13.5453ZM4.28265 12.3519L3.88199 13.2681L4.28265 12.3519ZM1.83332 10.4692L2.60492 9.83309L2.60492 9.83309L1.83332 10.4692ZM2.76235 2.10274L3.40747 2.86687L3.4141 2.86117L2.76235 2.10274ZM14.6558 1.60219L14.0701 2.41274L14.0772 2.4178L14.6558 1.60219ZM17.2929 6.42357L17.3349 7.42269L18.3858 7.37846L18.2886 6.33118L17.2929 6.42357ZM11.3781 6.6725L10.3832 6.77315L10.4781 7.71126L11.4202 7.67162L11.3781 6.6725ZM10.5075 5.01164L9.88364 5.79317L9.89353 5.80106L9.90361 5.8087L10.5075 5.01164ZM7.01856 5.06239L7.69429 5.79954L7.70535 5.7894L7.7161 5.77894L7.01856 5.06239ZM7.56875 8.24207L8.04268 7.36151L8.04268 7.36151L7.56875 8.24207ZM10.8211 9.41835L11.1014 8.45835L11.0886 8.45481L10.8211 9.41835ZM14.3972 10.6771L13.988 11.5896L13.9965 11.5933L14.3972 10.6771ZM16.8452 12.5278L16.0812 13.1731L16.0812 13.1731L16.8452 12.5278ZM17.1304 19.3058L16.2636 18.8072L16.2599 18.8135L16.2564 18.82L17.1304 19.3058ZM14.4219 21.918L13.9374 21.0432L13.9374 21.0432L14.4219 21.918ZM10.0387 22.0304C8.50592 22.0949 7.15655 21.9026 5.97501 21.4755L5.29505 23.3563C6.75872 23.8855 8.37318 24.1023 10.1228 24.0286L10.0387 22.0304ZM5.97501 21.4755C4.80826 21.0537 3.88436 20.4087 3.17423 19.5462L1.63024 20.8175C2.58528 21.9775 3.81659 22.8219 5.29505 23.3563L5.97501 21.4755ZM3.18251 19.5564C2.51497 18.7236 2.11814 17.6841 2.02601 16.3894L0.0310541 16.5313C0.147974 18.1744 0.666945 19.6159 1.62196 20.8073L3.18251 19.5564ZM1.07058 17.4595L6.88943 17.2146L6.80533 15.2163L0.986483 15.4612L1.07058 17.4595ZM5.85777 16.3592C6.00385 17.3648 6.4065 18.2411 7.14873 18.8636L8.43397 17.3312C8.15806 17.0998 7.93139 16.7215 7.83699 16.0717L5.85777 16.3592ZM7.16748 18.879C7.90237 19.4656 8.80287 19.6963 9.77861 19.6552L9.69452 17.657C9.09298 17.6823 8.69668 17.5406 8.41522 17.3159L7.16748 18.879ZM9.77861 19.6552C10.7296 19.6152 11.6007 19.3656 12.2762 18.7967L10.9878 17.267C10.7559 17.4623 10.3635 17.6289 9.69452 17.657L9.77861 19.6552ZM12.2972 18.7785C12.9961 18.1559 13.3077 17.3231 13.2686 16.3936L11.2703 16.4777C11.2868 16.8697 11.1735 17.1011 10.9668 17.2852L12.2972 18.7785ZM13.2686 16.3936C13.2343 15.58 12.9096 14.8663 12.2915 14.3299L10.9806 15.8403C11.1603 15.9963 11.2579 16.1829 11.2703 16.4777L13.2686 16.3936ZM12.3128 14.3489C11.8254 13.9008 11.2382 13.5598 10.5742 13.3112L9.87306 15.1843C10.3372 15.358 10.6916 15.5752 10.9593 15.8213L12.3128 14.3489ZM10.5875 13.3163C9.98697 13.0817 9.16136 12.8356 8.13295 12.5758L7.6431 14.5149C8.64337 14.7676 9.37483 14.9897 9.85973 15.1792L10.5875 13.3163ZM8.14266 12.5783C6.70279 12.1992 5.5546 11.8167 4.68332 11.4357L3.88199 13.2681C4.88143 13.7052 6.13682 14.1183 7.63339 14.5124L8.14266 12.5783ZM4.68332 11.4357C3.90242 11.0942 3.2101 10.5672 2.60492 9.83309L1.06173 11.1053C1.85161 12.0634 2.79217 12.7915 3.88199 13.2681L4.68332 11.4357ZM2.60492 9.83309C2.08085 9.19741 1.75001 8.29936 1.69734 7.0479L-0.300889 7.132C-0.235149 8.69405 0.190745 10.0488 1.06173 11.1053L2.60492 9.83309ZM1.69734 7.0479C1.62107 5.23568 2.2035 3.88329 3.40744 2.86684L2.11725 1.33864C0.393218 2.79417 -0.40044 4.76658 -0.300889 7.132L1.69734 7.0479ZM3.4141 2.86117C4.66645 1.78497 6.37885 1.15784 8.64381 1.06251L8.55971 -0.935717C5.96497 -0.826514 3.78443 -0.094086 2.11059 1.34431L3.4141 2.86117ZM8.64381 1.06251C10.9561 0.965201 12.7347 1.44769 14.0701 2.41271L15.2415 0.791683C13.4498 -0.503146 11.1924 -1.04652 8.55971 -0.935717L8.64381 1.06251ZM14.0772 2.4178C15.3756 3.33893 16.1256 4.66677 16.2972 6.51596L18.2886 6.33118C18.0694 3.96908 17.0614 2.08267 15.2344 0.786593L14.0772 2.4178ZM17.2508 5.42446L11.3361 5.67339L11.4202 7.67162L17.3349 7.42269L17.2508 5.42446ZM12.373 6.57185C12.2763 5.61563 11.8724 4.79113 11.1114 4.21458L9.90361 5.8087C10.1572 6.00084 10.3337 6.28358 10.3832 6.77315L12.373 6.57185ZM11.1314 4.23011C10.4016 3.64758 9.51451 3.41198 8.55222 3.45248L8.63632 5.45071C9.20867 5.42662 9.59704 5.56439 9.88364 5.79317L11.1314 4.23011ZM8.55222 3.45248C7.70129 3.48829 6.92324 3.7596 6.32102 4.34585L7.7161 5.77894C7.89334 5.6064 8.16575 5.47051 8.63632 5.45071L8.55222 3.45248ZM6.34283 4.32524C5.68226 4.93077 5.43836 5.75668 5.47522 6.63268L7.47346 6.54858C7.45471 6.10308 7.57361 5.91016 7.69429 5.79954L6.34283 4.32524ZM5.47522 6.63268C5.52218 7.74846 6.12045 8.59821 7.09482 9.12263L8.04268 7.36151C7.61883 7.13339 7.4875 6.88218 7.47346 6.54858L5.47522 6.63268ZM7.09482 9.12263C7.89451 9.55304 9.06551 9.96873 10.5535 10.3819L11.0886 8.45481C9.63843 8.05214 8.6412 7.68364 8.04268 7.36151L7.09482 9.12263ZM10.5408 10.3783C11.9872 10.8006 13.1315 11.2054 13.988 11.5895L14.8064 9.76466C13.8348 9.32892 12.595 8.89457 11.1014 8.45844L10.5408 10.3783ZM13.9965 11.5933C14.7836 11.9375 15.4775 12.4583 16.0812 13.1731L17.6091 11.8825C16.8196 10.9477 15.8815 10.2347 14.7978 9.76087L13.9965 11.5933ZM16.0812 13.1731C16.6027 13.7904 16.9262 14.6446 16.9758 15.8212L18.974 15.7371C18.9105 14.2281 18.4809 12.9147 17.6091 11.8825L16.0812 13.1731ZM16.9758 15.8212C17.0219 16.9179 16.7826 17.9049 16.2636 18.8072L17.9972 19.8044C18.7118 18.5622 19.0355 17.1982 18.974 15.7371L16.9758 15.8212ZM16.2564 18.82C15.7631 19.7074 15.0056 20.4517 13.9374 21.0432L14.9063 22.7928C16.2586 22.044 17.3068 21.0469 18.0045 19.7916L16.2564 18.82ZM13.9374 21.0432C12.8895 21.6235 11.6008 21.9647 10.0387 22.0304L10.1228 24.0286C11.9284 23.9526 13.5338 23.5528 14.9063 22.7928L13.9374 21.0432Z" fill="white" mask="url(#path-3-outside-1_1217_169)"/>
<mask id="path-5-outside-2_1217_169" maskUnits="userSpaceOnUse" x="-2.65331" y="15.2804" width="24.2016" height="30.3621" fill="black">
<rect fill="white" x="-2.65331" y="15.2804" width="24.2016" height="30.3621"/>
<path d="M2.84767 23.6718C3.40605 21.4568 4.50254 19.8907 6.13716 18.9734C7.77178 18.056 9.76805 17.8481 12.126 18.3497C13.691 18.6826 14.9687 19.2379 15.9592 20.0157C16.9706 20.7979 17.6582 21.7184 18.0218 22.7772C18.4064 23.8405 18.4744 24.9564 18.2258 26.1249C17.9329 27.5021 17.3489 28.5556 16.4739 29.2856C15.6033 29.9946 14.6757 30.408 13.691 30.5257L13.6643 30.6509C14.7694 31.3004 15.5686 32.1574 16.0619 33.222C16.5552 34.2866 16.6487 35.5388 16.3425 36.9786C16.0673 38.2723 15.5206 39.3556 14.7025 40.2285C13.9096 41.0849 12.8794 41.6728 11.6119 41.9921C10.3653 42.3158 8.95947 42.3112 7.39448 41.9783C4.89049 41.4457 3.01824 40.4041 1.77772 38.8534C0.558062 37.3071 0.170586 35.2836 0.61529 32.7827L5.81105 33.8879C5.63663 34.8104 5.74212 35.5962 6.12752 36.2453C6.51735 36.8735 7.1922 37.2897 8.15206 37.4938C8.96585 37.6669 9.64067 37.5705 10.1765 37.2047C10.7377 36.8224 11.1003 36.2452 11.2646 35.4732C11.4776 34.4716 11.3073 33.6829 10.7536 33.1071C10.2253 32.5149 9.26209 32.0701 7.86404 31.7727L6.86244 31.5597L7.78785 27.209L8.78945 27.422C9.85364 27.6484 10.7469 27.653 11.4692 27.4359C12.2168 27.2023 12.6905 26.616 12.8902 25.677C13.05 24.9258 12.9656 24.2972 12.6371 23.7911C12.3085 23.285 11.7791 22.9543 11.0487 22.7989C10.2558 22.6303 9.61006 22.7437 9.11151 23.1393C8.63383 23.5394 8.28824 24.0875 8.07473 24.7836L2.84767 23.6718Z"/>
</mask>
<path d="M2.84767 23.6718C3.40605 21.4568 4.50254 19.8907 6.13716 18.9734C7.77178 18.056 9.76805 17.8481 12.126 18.3497C13.691 18.6826 14.9687 19.2379 15.9592 20.0157C16.9706 20.7979 17.6582 21.7184 18.0218 22.7772C18.4064 23.8405 18.4744 24.9564 18.2258 26.1249C17.9329 27.5021 17.3489 28.5556 16.4739 29.2856C15.6033 29.9946 14.6757 30.408 13.691 30.5257L13.6643 30.6509C14.7694 31.3004 15.5686 32.1574 16.0619 33.222C16.5552 34.2866 16.6487 35.5388 16.3425 36.9786C16.0673 38.2723 15.5206 39.3556 14.7025 40.2285C13.9096 41.0849 12.8794 41.6728 11.6119 41.9921C10.3653 42.3158 8.95947 42.3112 7.39448 41.9783C4.89049 41.4457 3.01824 40.4041 1.77772 38.8534C0.558062 37.3071 0.170586 35.2836 0.61529 32.7827L5.81105 33.8879C5.63663 34.8104 5.74212 35.5962 6.12752 36.2453C6.51735 36.8735 7.1922 37.2897 8.15206 37.4938C8.96585 37.6669 9.64067 37.5705 10.1765 37.2047C10.7377 36.8224 11.1003 36.2452 11.2646 35.4732C11.4776 34.4716 11.3073 33.6829 10.7536 33.1071C10.2253 32.5149 9.26209 32.0701 7.86404 31.7727L6.86244 31.5597L7.78785 27.209L8.78945 27.422C9.85364 27.6484 10.7469 27.653 11.4692 27.4359C12.2168 27.2023 12.6905 26.616 12.8902 25.677C13.05 24.9258 12.9656 24.2972 12.6371 23.7911C12.3085 23.285 11.7791 22.9543 11.0487 22.7989C10.2558 22.6303 9.61006 22.7437 9.11151 23.1393C8.63383 23.5394 8.28824 24.0875 8.07473 24.7836L2.84767 23.6718Z" fill="#4F4F4F"/>
<path d="M2.84767 23.6718L1.87801 23.4273L1.62425 24.4339L2.63962 24.6499L2.84767 23.6718ZM6.13716 18.9734L6.62655 19.8454L6.62655 19.8454L6.13716 18.9734ZM15.9592 20.0157L15.3416 20.8022L15.3475 20.8067L15.9592 20.0157ZM18.0218 22.7772L17.0761 23.102L17.0787 23.1097L17.0814 23.1173L18.0218 22.7772ZM16.4739 29.2856L17.1054 30.061L17.1145 30.0535L16.4739 29.2856ZM13.691 30.5257L13.5723 29.5328L12.8617 29.6177L12.7129 30.3177L13.691 30.5257ZM13.6643 30.6509L12.6862 30.4429L12.5363 31.1479L13.1577 31.5131L13.6643 30.6509ZM16.0619 33.222L16.9692 32.8016L16.0619 33.222ZM14.7025 40.2285L13.9728 39.5446L13.9686 39.5491L14.7025 40.2285ZM11.6119 41.9921L11.3676 41.0223L11.3606 41.0242L11.6119 41.9921ZM1.77772 38.8534L0.992554 39.4727L0.996843 39.4781L1.77772 38.8534ZM0.61529 32.7827L0.823341 31.8046L-0.188208 31.5894L-0.369265 32.6076L0.61529 32.7827ZM5.81105 33.8879L6.79365 34.0736L6.97524 33.1131L6.0191 32.9098L5.81105 33.8879ZM6.12752 36.2453L5.26767 36.7559L5.27267 36.7643L5.27783 36.7726L6.12752 36.2453ZM10.1765 37.2047L9.61349 36.3782L9.61264 36.3788L10.1765 37.2047ZM10.7536 33.1071L10.0075 33.7728L10.0199 33.7868L10.0328 33.8002L10.7536 33.1071ZM6.86244 31.5597L5.88433 31.3516L5.67628 32.3297L6.65439 32.5378L6.86244 31.5597ZM7.78785 27.209L7.9959 26.2309L7.01778 26.0228L6.80973 27.001L7.78785 27.209ZM11.4692 27.4359L11.7571 28.3936L11.7674 28.3904L11.4692 27.4359ZM12.6371 23.7911L13.4758 23.2466L13.4758 23.2466L12.6371 23.7911ZM9.11151 23.1393L8.48992 22.356L8.47958 22.3642L8.46946 22.3727L9.11151 23.1393ZM8.07473 24.7836L7.86668 25.7617L8.7623 25.9522L9.03078 25.0768L8.07473 24.7836ZM3.81733 23.9162C4.32435 21.905 5.28238 20.5998 6.62655 19.8454L5.64777 18.1013C3.72271 19.1816 2.48774 21.0087 1.87801 23.4273L3.81733 23.9162ZM6.62655 19.8454C7.9944 19.0778 9.72786 18.862 11.9179 19.3278L12.334 17.3716C9.80823 16.8343 7.54916 17.0343 5.64777 18.1013L6.62655 19.8454ZM11.9179 19.3278C13.3728 19.6373 14.4992 20.1407 15.3417 20.8022L16.5768 19.2291C15.4382 18.3351 14.0091 17.7279 12.334 17.3716L11.9179 19.3278ZM15.3475 20.8067C16.227 21.4869 16.7845 22.2531 17.0761 23.102L18.9676 22.4524C18.5318 21.1836 17.7143 20.1088 16.571 19.2246L15.3475 20.8067ZM17.0814 23.1173C17.3988 23.9949 17.4597 24.9202 17.2477 25.9168L19.2039 26.3329C19.489 24.9926 19.4139 23.6861 18.9622 22.4371L17.0814 23.1173ZM17.2477 25.9168C16.9901 27.1278 16.4989 27.9625 15.8333 28.5177L17.1145 30.0535C18.1989 29.1488 18.8756 27.8764 19.2039 26.3329L17.2477 25.9168ZM15.8424 28.5102C15.0987 29.1159 14.3449 29.4404 13.5723 29.5328L13.8097 31.5187C15.0065 31.3756 16.1079 30.8734 17.1054 30.0609L15.8424 28.5102ZM12.7129 30.3177L12.6862 30.4429L14.6425 30.859L14.6691 30.7338L12.7129 30.3177ZM13.1577 31.5131C14.1043 32.0694 14.7547 32.7795 15.1546 33.6424L16.9692 32.8016C16.3825 31.5353 15.4345 30.5313 14.171 29.7888L13.1577 31.5131ZM15.1546 33.6424C15.5359 34.4655 15.6372 35.4878 15.3644 36.7705L17.3206 37.1866C17.6602 35.5898 17.5745 34.1077 16.9692 32.8016L15.1546 33.6424ZM15.3644 36.7705C15.123 37.9053 14.6535 38.8185 13.9728 39.5446L15.4321 40.9124C16.3878 39.8927 17.0116 38.6393 17.3206 37.1866L15.3644 36.7705ZM13.9686 39.5491C13.3228 40.2468 12.4706 40.7445 11.3676 41.0224L11.8562 42.9618C13.2882 42.601 14.4964 41.9231 15.4363 40.9078L13.9686 39.5491ZM11.3606 41.0242C10.2962 41.3006 9.05168 41.3085 7.60253 41.0002L7.18643 42.9565C8.86725 43.314 10.4344 43.331 11.8632 42.96L11.3606 41.0242ZM7.60253 41.0002C5.25819 40.5016 3.61738 39.5522 2.55859 38.2287L0.996843 39.4781C2.4191 41.2559 4.52279 42.3899 7.18643 42.9565L7.60253 41.0002ZM2.56287 38.2341C1.56813 36.973 1.1897 35.2643 1.59985 32.9578L-0.369265 32.6076C-0.848528 35.3029 -0.452008 37.6413 0.992572 39.4727L2.56287 38.2341ZM0.40724 33.7608L5.603 34.866L6.0191 32.9098L0.823341 31.8046L0.40724 33.7608ZM4.82846 33.7021C4.62025 34.8034 4.72969 35.8498 5.26767 36.7559L6.98736 35.7347C6.75455 35.3427 6.65301 34.8175 6.79365 34.0736L4.82846 33.7021ZM5.27783 36.7726C5.85377 37.7007 6.80861 38.2304 7.94401 38.4719L8.36011 36.5157C7.57579 36.3489 7.18094 36.0463 6.9772 35.718L5.27783 36.7726ZM7.94401 38.4719C8.9455 38.685 9.91946 38.5911 10.7404 38.0306L9.61264 36.3788C9.36189 36.55 8.98621 36.6489 8.36011 36.5157L7.94401 38.4719ZM10.7395 38.0311C11.548 37.4804 12.0342 36.6612 12.2427 35.6812L10.2864 35.2651C10.1665 35.8292 9.92737 36.1644 9.61349 36.3782L10.7395 38.0311ZM12.2427 35.6812C12.5029 34.4577 12.3222 33.2956 11.4745 32.414L10.0328 33.8002C10.2924 34.0701 10.4523 34.4855 10.2864 35.2651L12.2427 35.6812ZM11.4998 32.4414C10.7553 31.6068 9.53203 31.1051 8.07209 30.7946L7.65599 32.7508C8.99216 33.035 9.69533 33.423 10.0075 33.7728L11.4998 32.4414ZM8.07209 30.7946L7.07049 30.5816L6.65439 32.5378L7.65599 32.7508L8.07209 30.7946ZM7.84056 31.7677L8.76597 27.4171L6.80973 27.001L5.88433 31.3516L7.84056 31.7677ZM7.5798 28.1871L8.58139 28.4002L8.9975 26.4439L7.9959 26.2309L7.5798 28.1871ZM8.58139 28.4002C9.74192 28.647 10.8182 28.6758 11.7571 28.3935L11.1813 26.4782C10.6756 26.6303 9.96535 26.6498 8.9975 26.4439L8.58139 28.4002ZM11.7674 28.3904C12.9427 28.0232 13.6134 27.0835 13.8683 25.8851L11.9121 25.469C11.7676 26.1486 11.4909 26.3814 11.171 26.4814L11.7674 28.3904ZM13.8683 25.8851C14.0675 24.9488 13.9855 24.0316 13.4758 23.2466L11.7983 24.3356C11.9458 24.5628 12.0325 24.9029 11.9121 25.469L13.8683 25.8851ZM13.4758 23.2466C12.9702 22.4677 12.1812 22.0174 11.2568 21.8208L10.8407 23.777C11.3769 23.8911 11.6468 24.1023 11.7983 24.3356L13.4758 23.2466ZM11.2568 21.8208C10.2586 21.6085 9.28356 21.7262 8.48992 22.356L9.7331 23.9227C9.93656 23.7612 10.253 23.652 10.8407 23.777L11.2568 21.8208ZM8.46946 22.3727C7.81994 22.9166 7.37913 23.6412 7.11869 24.4904L9.03078 25.0768C9.19735 24.5337 9.44772 24.1621 9.75356 23.906L8.46946 22.3727ZM8.28278 23.8055L3.05572 22.6937L2.63962 24.6499L7.86668 25.7617L8.28278 23.8055Z" fill="white" mask="url(#path-5-outside-2_1217_169)"/>
<mask id="path-7-outside-3_1217_169" maskUnits="userSpaceOnUse" x="13.1428" y="-5.48558" width="31.3035" height="31.9819" fill="black">
<rect fill="white" x="13.1428" y="-5.48558" width="31.3035" height="31.9819"/>
<path d="M31.7868 5.08495C31.1878 4.48243 30.4658 4.10492 29.6208 3.95243C28.7903 3.77346 27.8837 3.82798 26.901 4.11599C25.2019 4.614 24.0055 5.576 23.3119 7.00198C22.6123 8.40748 22.5355 10.0417 23.0815 11.9047C23.6635 13.8905 24.6518 15.2904 26.0463 16.1043C27.4554 16.8918 29.1016 17.0095 30.9851 16.4575C32.2748 16.0795 33.2638 15.434 33.9521 14.5208C34.6609 13.6017 35.04 12.468 35.0894 11.1197L28.4257 13.0727L27.2917 9.20348L38.7152 5.85539L40.1462 10.738C40.1412 12.1622 39.8329 13.5753 39.2212 14.9773C38.63 16.3733 37.7198 17.6293 36.4908 18.7454C35.2617 19.8614 33.7464 20.6835 31.9449 21.2115C29.8158 21.8355 27.7769 21.9329 25.8281 21.5037C23.8939 21.0479 22.2129 20.129 20.7852 18.7467C19.3779 17.3585 18.3623 15.5998 17.7382 13.4707C17.1142 11.3416 17.0198 9.31294 17.4551 7.38469C17.9048 5.42997 18.8238 3.74897 20.212 2.34171C21.5942 0.91398 23.3499 -0.111895 25.479 -0.735911C28.0585 -1.49193 30.4116 -1.50355 32.5382 -0.770761C34.6853 -0.0439717 36.3694 1.34092 37.5907 3.3839L31.7868 5.08495Z"/>
</mask>
<path d="M31.7868 5.08495C31.1878 4.48243 30.4658 4.10492 29.6208 3.95243C28.7903 3.77346 27.8837 3.82798 26.901 4.11599C25.2019 4.614 24.0055 5.576 23.3119 7.00198C22.6123 8.40748 22.5355 10.0417 23.0815 11.9047C23.6635 13.8905 24.6518 15.2904 26.0463 16.1043C27.4554 16.8918 29.1016 17.0095 30.9851 16.4575C32.2748 16.0795 33.2638 15.434 33.9521 14.5208C34.6609 13.6017 35.04 12.468 35.0894 11.1197L28.4257 13.0727L27.2917 9.20348L38.7152 5.85539L40.1462 10.738C40.1412 12.1622 39.8329 13.5753 39.2212 14.9773C38.63 16.3733 37.7198 17.6293 36.4908 18.7454C35.2617 19.8614 33.7464 20.6835 31.9449 21.2115C29.8158 21.8355 27.7769 21.9329 25.8281 21.5037C23.8939 21.0479 22.2129 20.129 20.7852 18.7467C19.3779 17.3585 18.3623 15.5998 17.7382 13.4707C17.1142 11.3416 17.0198 9.31294 17.4551 7.38469C17.9048 5.42997 18.8238 3.74897 20.212 2.34171C21.5942 0.91398 23.3499 -0.111895 25.479 -0.735911C28.0585 -1.49193 30.4116 -1.50355 32.5382 -0.770761C34.6853 -0.0439717 36.3694 1.34092 37.5907 3.3839L31.7868 5.08495Z" fill="#057DE5"/>
<path d="M31.7868 5.08495L31.0776 5.78997L31.4971 6.21193L32.0681 6.04458L31.7868 5.08495ZM29.6208 3.95243L29.4102 4.92999L29.4267 4.93354L29.4432 4.93653L29.6208 3.95243ZM23.3119 7.00198L24.2071 7.4476L24.2111 7.43938L23.3119 7.00198ZM26.0463 16.1043L25.5423 16.968L25.5503 16.9727L25.5585 16.9772L26.0463 16.1043ZM33.9521 14.5208L33.1602 13.9101L33.1536 13.9189L33.9521 14.5208ZM35.0894 11.1197L36.0888 11.1563L36.1396 9.76981L34.8082 10.16L35.0894 11.1197ZM28.4257 13.0727L27.4661 13.354L27.7474 14.3136L28.707 14.0324L28.4257 13.0727ZM27.2917 9.20348L27.0105 8.24385L26.0508 8.52511L26.3321 9.48474L27.2917 9.20348ZM38.7152 5.85539L39.6748 5.57414L39.3935 4.6145L38.4339 4.89576L38.7152 5.85539ZM40.1462 10.738L41.1462 10.7415L41.1467 10.5962L41.1058 10.4567L40.1462 10.738ZM39.2212 14.9773L38.3046 14.5774L38.3004 14.5873L39.2212 14.9773ZM36.4908 18.7454L35.8185 18.005L35.8185 18.005L36.4908 18.7454ZM25.8281 21.5037L25.5988 22.477L25.6059 22.4787L25.613 22.4802L25.8281 21.5037ZM20.7852 18.7467L20.0829 19.4587L20.0896 19.4652L20.7852 18.7467ZM17.4551 7.38469L16.4805 7.16048L16.4796 7.16451L17.4551 7.38469ZM20.212 2.34171L20.9239 3.04402L20.9305 3.03728L20.212 2.34171ZM32.5382 -0.770761L32.2124 0.174699L32.2175 0.176444L32.5382 -0.770761ZM37.5907 3.3839L37.8719 4.34354L39.1121 3.98006L38.449 2.87082L37.5907 3.3839ZM32.496 4.37993C31.7509 3.63048 30.8427 3.15678 29.7984 2.96832L29.4432 4.93653C30.0889 5.05306 30.6247 5.33438 31.0776 5.78997L32.496 4.37993ZM29.8315 2.97486C28.8077 2.75427 27.7297 2.83105 26.6198 3.15636L27.1823 5.07562C28.0377 4.82491 28.7729 4.79265 29.4102 4.92999L29.8315 2.97486ZM26.6198 3.15636C24.6853 3.72335 23.2445 4.85416 22.4126 6.56457L24.2111 7.43938C24.7664 6.29784 25.7184 5.50466 27.1823 5.07562L26.6198 3.15636ZM22.4166 6.55637C21.5797 8.23768 21.5225 10.1411 22.1219 12.1859L24.0411 11.6234C23.5484 9.9423 23.6448 8.57728 24.2071 7.44758L22.4166 6.55637ZM22.1219 12.1859C22.7547 14.3452 23.87 15.9919 25.5423 16.968L26.5504 15.2407C25.4336 14.5888 24.5723 13.4357 24.0411 11.6234L22.1219 12.1859ZM25.5585 16.9772C27.2509 17.9231 29.1847 18.0273 31.2663 17.4172L30.7038 15.4979C29.0185 15.9918 27.6598 15.8605 26.5342 15.2314L25.5585 16.9772ZM31.2663 17.4172C32.725 16.9896 33.9112 16.2364 34.7507 15.1228L33.1536 13.9189C32.6164 14.6315 31.8246 15.1694 30.7038 15.4979L31.2663 17.4172ZM34.744 15.1315C35.5999 14.0217 36.033 12.678 36.0888 11.1563L34.0901 11.083C34.047 12.258 33.7219 13.1818 33.1602 13.9102L34.744 15.1315ZM34.8082 10.16L28.1445 12.1131L28.707 14.0324L35.3707 12.0793L34.8082 10.16ZM29.3854 12.7915L28.2513 8.92223L26.3321 9.48474L27.4661 13.354L29.3854 12.7915ZM27.573 10.1631L38.9964 6.81503L38.4339 4.89576L27.0105 8.24385L27.573 10.1631ZM37.7555 6.13665L39.1866 11.0193L41.1058 10.4567L39.6748 5.57414L37.7555 6.13665ZM39.1462 10.7345C39.1418 12.0124 38.8659 13.2911 38.3046 14.5774L40.1378 15.3772C40.7999 13.8595 41.1407 12.312 41.1462 10.7415L39.1462 10.7345ZM38.3004 14.5873C37.7708 15.8376 36.9506 16.977 35.8185 18.005L37.163 19.4857C38.489 18.2816 39.4891 16.9089 40.142 15.3673L38.3004 14.5873ZM35.8185 18.005C34.7154 19.0068 33.339 19.7608 31.6636 20.2518L32.2261 22.1711C34.1538 21.6061 35.8081 20.7161 37.163 19.4857L35.8185 18.005ZM31.6636 20.2518C29.6775 20.834 27.81 20.9162 26.0432 20.5271L25.613 22.4802C27.7438 22.9496 29.9541 22.837 32.2261 22.1711L31.6636 20.2518ZM26.0575 20.5303C24.2988 20.116 22.7789 19.2851 21.4807 18.0283L20.0896 19.4652C21.6469 20.9729 23.489 21.9799 25.5988 22.477L26.0575 20.5303ZM21.4874 18.0348C20.2154 16.78 19.2801 15.1758 18.6979 13.1895L16.7786 13.752C17.4445 16.0239 18.5404 17.937 20.0829 19.4586L21.4874 18.0348ZM18.6979 13.1895C18.1157 11.2031 18.0371 9.34785 18.4305 7.60487L16.4796 7.16451C16.0026 9.27803 16.1128 11.4801 16.7786 13.752L18.6979 13.1895ZM18.4296 7.60889C18.8384 5.83199 19.6678 4.31728 20.9239 3.04399L19.5001 1.63943C17.9797 3.18067 16.9711 5.02794 16.4805 7.16049L18.4296 7.60889ZM20.9305 3.03728C22.1787 1.74793 23.7775 0.804838 25.7603 0.223721L25.1977 -1.69554C22.9223 -1.02863 21.0097 0.080025 19.4935 1.64614L20.9305 3.03728ZM25.7603 0.223721C28.1805 -0.485629 30.3175 -0.478242 32.2124 0.174685L32.8639 -1.71621C30.5056 -2.52885 27.9365 -2.49823 25.1977 -1.69554L25.7603 0.223721ZM32.2175 0.176444C34.1275 0.822983 35.6264 2.04692 36.7323 3.89699L38.449 2.87082C37.1124 0.634914 35.243 -0.910926 32.8588 -1.71797L32.2175 0.176444ZM37.3094 2.42427L31.5055 4.12532L32.0681 6.04458L37.8719 4.34354L37.3094 2.42427Z" fill="white" mask="url(#path-7-outside-3_1217_169)"/>
<mask id="path-9-outside-4_1217_169" maskUnits="userSpaceOnUse" x="14.511" y="16.2837" width="28.4537" height="29.2372" fill="black">
<rect fill="white" x="14.511" y="16.2837" width="28.4537" height="29.2372"/>
<path d="M29.422 42.7695L23.9716 31.5564L22.0179 41.2821L16.6531 40.2044L21.0774 18.1804L26.4422 19.2581L24.5011 28.9211L33.7836 20.7329L40.0896 21.9997L29.388 31.0778L35.979 44.0867L29.422 42.7695Z"/>
</mask>
<path d="M29.422 42.7695L23.9716 31.5564L22.0179 41.2821L16.6531 40.2044L21.0774 18.1804L26.4422 19.2581L24.5011 28.9211L33.7836 20.7329L40.0896 21.9997L29.388 31.0778L35.979 44.0867L29.422 42.7695Z" fill="#057DE5"/>
<path d="M29.422 42.7695L28.5226 43.2067L28.7392 43.6523L29.225 43.7499L29.422 42.7695ZM23.9716 31.5564L24.871 31.1193L23.5751 28.4531L22.9912 31.3595L23.9716 31.5564ZM22.0179 41.2821L21.8209 42.2626L22.8013 42.4595L22.9983 41.4791L22.0179 41.2821ZM16.6531 40.2044L15.6726 40.0075L15.4757 40.9879L16.4561 41.1848L16.6531 40.2044ZM21.0774 18.1804L21.2744 17.2L20.2939 17.0031L20.097 17.9835L21.0774 18.1804ZM26.4422 19.2581L27.4226 19.4551L27.6196 18.4747L26.6392 18.2777L26.4422 19.2581ZM24.5011 28.9211L23.5206 28.7241L22.9358 31.6352L25.1626 29.671L24.5011 28.9211ZM33.7836 20.7329L33.9805 19.7525L33.4941 19.6548L33.122 19.983L33.7836 20.7329ZM40.0896 21.9997L40.7365 22.7623L42.3116 21.4261L40.2865 21.0193L40.0896 21.9997ZM29.388 31.0778L28.7411 30.3153L28.1393 30.8258L28.496 31.5298L29.388 31.0778ZM35.979 44.0867L35.782 45.0672L37.8023 45.473L36.871 43.6348L35.979 44.0867ZM30.3213 42.3324L24.871 31.1193L23.0723 31.9936L28.5226 43.2067L30.3213 42.3324ZM22.9912 31.3595L21.0375 41.0852L22.9983 41.4791L24.9521 31.7534L22.9912 31.3595ZM22.2148 40.3017L16.85 39.224L16.4561 41.1848L21.8209 42.2626L22.2148 40.3017ZM17.6335 40.4014L22.0578 18.3774L20.097 17.9835L15.6726 40.0075L17.6335 40.4014ZM20.8804 19.1608L26.2453 20.2386L26.6392 18.2777L21.2744 17.2L20.8804 19.1608ZM25.4618 19.0612L23.5206 28.7241L25.4815 29.118L27.4226 19.4551L25.4618 19.0612ZM25.1626 29.671L34.4451 21.4828L33.122 19.983L23.8395 28.1712L25.1626 29.671ZM33.5866 21.7133L39.8926 22.9801L40.2865 21.0193L33.9805 19.7525L33.5866 21.7133ZM39.4427 21.2371L28.7411 30.3153L30.0349 31.8404L40.7365 22.7623L39.4427 21.2371ZM28.496 31.5298L35.0869 44.5387L36.871 43.6348L30.28 30.6259L28.496 31.5298ZM36.1759 43.1063L29.6189 41.7891L29.225 43.7499L35.782 45.0672L36.1759 43.1063Z" fill="white" mask="url(#path-9-outside-4_1217_169)"/>
</g>
<rect x="0.628052" y="0.5" width="39" height="39" stroke="white"/>
<defs>
<clipPath id="clip0_1217_169">
<rect x="0.128052" width="40" height="40" fill="white"/>
</clipPath>
</defs>
</svg>
